<?xml version="1.0" encoding="UTF-8" standalone="no"?>
<!DOCTYPE svg PUBLIC "-//W3C//DTD SVG 1.1//EN"
 "http://www.w3.org/Graphics/SVG/1.1/DTD/svg11.dtd">
<!-- Generated by graphviz version 2.49.3 (20211023.0002)
 -->
<!-- Pages: 1 -->
<svg width="372pt" height="220pt"
 viewBox="0.00 0.00 371.60 220.00" xmlns="http://www.w3.org/2000/svg" xmlns:xlink="http://www.w3.org/1999/xlink">
<g id="graph0" class="graph" transform="scale(1 1) rotate(0) translate(4 216)">
<polygon fill="white" stroke="transparent" points="-4,4 -4,-216 367.6,-216 367.6,4 -4,4"/>
<!-- _0_ -->
<!-- 0 -->
<g id="node2" class="node">
<title>0</title>
<ellipse fill="none" stroke="black" cx="56.47" cy="-103" rx="18.44" ry="18"/>
<text text-anchor="middle" x="56.47" y="-99.9" font-family="Times,serif" font-size="12.00">&lt;&gt;</text>
</g>
<!-- _0_&#45;&gt;0 -->
<g id="edge1" class="edge">
<title>_0_&#45;&gt;0</title>
<path fill="none" stroke="black" d="M1.16,-103C2.89,-103 18.74,-103 32.87,-103"/>
<polygon fill="black" stroke="black" points="32.97,-104.75 37.97,-103 32.97,-101.25 32.97,-104.75"/>
</g>
<!-- 2 -->
<g id="node4" class="node">
<title>2</title>
<ellipse fill="none" stroke="black" cx="140.1" cy="-163" rx="21.59" ry="18"/>
<text text-anchor="middle" x="140.1" y="-159.9" font-family="Times,serif" font-size="12.00">&lt;a&gt;</text>
</g>
<!-- 0&#45;&gt;2 -->
<g id="edge2" class="edge">
<title>0&#45;&gt;2</title>
<path fill="none" stroke="black" d="M71.69,-113.45C84.77,-123.07 104.3,-137.43 118.98,-148.22"/>
<polygon fill="black" stroke="black" points="118.3,-149.89 123.37,-151.44 120.38,-147.07 118.3,-149.89"/>
<text text-anchor="middle" x="96.44" y="-136.4" font-family="Times,serif" font-size="12.00">a</text>
</g>
<!-- 4 -->
<g id="node6" class="node">
<title>4</title>
<ellipse fill="none" stroke="black" cx="140.1" cy="-18" rx="22.32" ry="18"/>
<text text-anchor="middle" x="140.1" y="-14.9" font-family="Times,serif" font-size="12.00">&lt;b&gt;</text>
</g>
<!-- 0&#45;&gt;4 -->
<g id="edge3" class="edge">
<title>0&#45;&gt;4</title>
<path fill="none" stroke="black" d="M69.87,-90.09C83.76,-75.62 106.39,-52.06 121.97,-35.84"/>
<polygon fill="black" stroke="black" points="123.57,-36.7 125.77,-31.88 121.04,-34.27 123.57,-36.7"/>
<text text-anchor="middle" x="96.44" y="-68.4" font-family="Times,serif" font-size="12.00">b</text>
</g>
<!-- 5 -->
<g id="node7" class="node">
<title>5</title>
<ellipse fill="none" stroke="black" cx="231.34" cy="-121" rx="21.59" ry="18"/>
<text text-anchor="middle" x="231.34" y="-117.9" font-family="Times,serif" font-size="12.00">&lt;c&gt;</text>
</g>
<!-- 0&#45;&gt;5 -->
<g id="edge4" class="edge">
<title>0&#45;&gt;5</title>
<path fill="none" stroke="black" d="M75,-104.82C105.68,-108.02 169.23,-114.64 204.8,-118.34"/>
<polygon fill="black" stroke="black" points="204.69,-120.09 209.84,-118.87 205.05,-116.61 204.69,-120.09"/>
<text text-anchor="middle" x="140.1" y="-116.4" font-family="Times,serif" font-size="12.00">c</text>
</g>
<!-- 1 -->
<g id="node3" class="node">
<title>1</title>
<ellipse fill="none" stroke="black" cx="332.51" cy="-121" rx="27.16" ry="18"/>
<ellipse fill="none" stroke="black" cx="332.51" cy="-121" rx="31.17" ry="22"/>
<text text-anchor="middle" x="332.51" y="-117.9" font-family="Times,serif" font-size="12.00">&lt;a b&gt;</text>
</g>
<!-- 1&#45;&gt;1 -->
<g id="edge5" class="edge">
<title>1&#45;&gt;1</title>
<path fill="none" stroke="black" d="M323,-141.99C321.83,-152.09 325,-161 332.51,-161 338.74,-161 341.98,-154.89 342.25,-147.05"/>
<polygon fill="black" stroke="black" points="343.99,-146.91 342.03,-141.99 340.5,-147.06 343.99,-146.91"/>
<text text-anchor="middle" x="332.51" y="-164.4" font-family="Times,serif" font-size="12.00">a, b, c</text>
</g>
<!-- 2&#45;&gt;1 -->
<g id="edge6" class="edge">
<title>2&#45;&gt;1</title>
<path fill="none" stroke="black" d="M159.92,-170.8C183.55,-179.42 225.04,-190.64 258.43,-179 278.98,-171.84 298.09,-156.21 311.62,-142.99"/>
<polygon fill="black" stroke="black" points="312.98,-144.1 315.28,-139.33 310.5,-141.62 312.98,-144.1"/>
<text text-anchor="middle" x="231.34" y="-186.4" font-family="Times,serif" font-size="12.00">b</text>
</g>
<!-- 2&#45;&gt;2 -->
<g id="edge7" class="edge">
<title>2&#45;&gt;2</title>
<path fill="none" stroke="black" d="M132.65,-180.04C131.14,-189.86 133.62,-199 140.1,-199 145.36,-199 147.99,-192.96 147.97,-185.43"/>
<polygon fill="black" stroke="black" points="149.68,-184.88 147.54,-180.04 146.19,-185.16 149.68,-184.88"/>
<text text-anchor="middle" x="140.1" y="-202.4" font-family="Times,serif" font-size="12.00">a</text>
</g>
<!-- 2&#45;&gt;5 -->
<g id="edge8" class="edge">
<title>2&#45;&gt;5</title>
<path fill="none" stroke="black" d="M161.35,-158.56C169.31,-156.46 178.4,-153.61 186.26,-150 194.53,-146.2 203.02,-140.98 210.32,-136.01"/>
<polygon fill="black" stroke="black" points="211.59,-137.26 214.69,-132.97 209.59,-134.39 211.59,-137.26"/>
<text text-anchor="middle" x="183.26" y="-155.4" font-family="Times,serif" font-size="12.00">c</text>
</g>
<!-- 3 -->
<g id="node5" class="node">
<title>3</title>
<ellipse fill="none" stroke="black" cx="231.34" cy="-36" rx="27.17" ry="18"/>
<text text-anchor="middle" x="231.34" y="-32.9" font-family="Times,serif" font-size="12.00">&lt;b a&gt;</text>
</g>
<!-- 3&#45;&gt;1 -->
<g id="edge9" class="edge">
<title>3&#45;&gt;1</title>
<path fill="none" stroke="black" d="M248.72,-50.04C264.88,-63.89 289.76,-85.21 308.02,-100.86"/>
<polygon fill="black" stroke="black" points="307.11,-102.39 312.05,-104.31 309.39,-99.73 307.11,-102.39"/>
<text text-anchor="middle" x="279.93" y="-81.4" font-family="Times,serif" font-size="12.00">b</text>
</g>
<!-- 3&#45;&gt;3 -->
<g id="edge10" class="edge">
<title>3&#45;&gt;3</title>
<path fill="none" stroke="black" d="M222.77,-53.41C221.17,-63.09 224.03,-72 231.34,-72 237.28,-72 240.28,-66.12 240.34,-58.72"/>
<polygon fill="black" stroke="black" points="242.06,-58.25 239.91,-53.41 238.57,-58.53 242.06,-58.25"/>
<text text-anchor="middle" x="231.34" y="-75.4" font-family="Times,serif" font-size="12.00">a</text>
</g>
<!-- 3&#45;&gt;4 -->
<g id="edge11" class="edge">
<title>3&#45;&gt;4</title>
<path fill="none" stroke="black" d="M205.3,-30.95C193.3,-28.53 178.93,-25.63 166.83,-23.19"/>
<polygon fill="black" stroke="black" points="167.04,-21.45 161.8,-22.17 166.35,-24.88 167.04,-21.45"/>
<text text-anchor="middle" x="183.26" y="-30.4" font-family="Times,serif" font-size="12.00">c</text>
</g>
<!-- 4&#45;&gt;3 -->
<g id="edge12" class="edge">
<title>4&#45;&gt;3</title>
<path fill="none" stroke="black" d="M160.15,-10.23C168.26,-7.94 177.79,-6.61 186.26,-9 193.98,-11.18 201.68,-15.12 208.44,-19.34"/>
<polygon fill="black" stroke="black" points="207.81,-21.02 212.95,-22.28 209.72,-18.09 207.81,-21.02"/>
<text text-anchor="middle" x="183.26" y="-12.4" font-family="Times,serif" font-size="12.00">a</text>
</g>
<!-- 4&#45;&gt;4 -->
<g id="edge13" class="edge">
<title>4&#45;&gt;4</title>
<path fill="none" stroke="black" d="M132.65,-35.04C131.14,-44.86 133.62,-54 140.1,-54 145.36,-54 147.99,-47.96 147.97,-40.43"/>
<polygon fill="black" stroke="black" points="149.68,-39.88 147.54,-35.04 146.19,-40.16 149.68,-39.88"/>
<text text-anchor="middle" x="140.1" y="-57.4" font-family="Times,serif" font-size="12.00">b, c</text>
</g>
<!-- 5&#45;&gt;2 -->
<g id="edge14" class="edge">
<title>5&#45;&gt;2</title>
<path fill="none" stroke="black" d="M209.7,-123.94C200.4,-125.76 189.46,-128.62 180.26,-133 172.97,-136.47 165.74,-141.45 159.51,-146.36"/>
<polygon fill="black" stroke="black" points="158.15,-145.22 155.37,-149.73 160.36,-147.93 158.15,-145.22"/>
<text text-anchor="middle" x="183.26" y="-136.4" font-family="Times,serif" font-size="12.00">a</text>
</g>
<!-- 5&#45;&gt;5 -->
<g id="edge15" class="edge">
<title>5&#45;&gt;5</title>
<path fill="none" stroke="black" d="M222.91,-137.66C221.03,-147.62 223.84,-157 231.34,-157 237.55,-157 240.55,-150.57 240.33,-142.7"/>
<polygon fill="black" stroke="black" points="242.06,-142.44 239.78,-137.66 238.59,-142.82 242.06,-142.44"/>
<text text-anchor="middle" x="231.34" y="-160.4" font-family="Times,serif" font-size="12.00">b, c</text>
</g>
</g>
</svg>
