<?xml version="1.0" encoding="UTF-8" standalone="no"?>
<!DOCTYPE svg PUBLIC "-//W3C//DTD SVG 1.1//EN"
 "http://www.w3.org/Graphics/SVG/1.1/DTD/svg11.dtd">
<!-- Generated by graphviz version 2.49.3 (20211023.0002)
 -->
<!-- Pages: 1 -->
<svg width="255pt" height="105pt"
 viewBox="0.00 0.00 255.40 105.00" xmlns="http://www.w3.org/2000/svg" xmlns:xlink="http://www.w3.org/1999/xlink">
<g id="graph0" class="graph" transform="scale(1 1) rotate(0) translate(4 101)">
<polygon fill="white" stroke="transparent" points="-4,4 -4,-101 251.4,-101 251.4,4 -4,4"/>
<!-- _0_ -->
<!-- 0 -->
<g id="node2" class="node">
<title>0</title>
<ellipse fill="none" stroke="black" cx="56" cy="-22" rx="18" ry="18"/>
<text text-anchor="middle" x="56" y="-18.9" font-family="Times,serif" font-size="12.00">λ</text>
</g>
<!-- _0_&#45;&gt;0 -->
<g id="edge1" class="edge">
<title>_0_&#45;&gt;0</title>
<path fill="none" stroke="black" d="M1.15,-22C2.88,-22 18.79,-22 32.87,-22"/>
<polygon fill="black" stroke="black" points="32.94,-23.75 37.94,-22 32.94,-20.25 32.94,-23.75"/>
</g>
<!-- 0&#45;&gt;0 -->
<g id="edge2" class="edge">
<title>0&#45;&gt;0</title>
<path fill="none" stroke="black" d="M49.62,-39.04C48.32,-48.86 50.45,-58 56,-58 60.51,-58 62.76,-51.96 62.75,-44.43"/>
<polygon fill="black" stroke="black" points="64.47,-43.91 62.38,-39.04 60.98,-44.15 64.47,-43.91"/>
<text text-anchor="middle" x="56" y="-61.4" font-family="Times,serif" font-size="12.00">D, T</text>
</g>
<!-- 1 -->
<g id="node3" class="node">
<title>1</title>
<ellipse fill="none" stroke="black" cx="137" cy="-48" rx="18" ry="18"/>
<text text-anchor="middle" x="137" y="-44.9" font-family="Times,serif" font-size="12.00">V</text>
</g>
<!-- 0&#45;&gt;1 -->
<g id="edge3" class="edge">
<title>0&#45;&gt;1</title>
<path fill="none" stroke="black" d="M72.89,-28.8C78.83,-31.23 85.67,-33.88 92,-36 99.06,-38.37 106.87,-40.61 113.93,-42.51"/>
<polygon fill="black" stroke="black" points="113.87,-44.3 119.15,-43.89 114.76,-40.92 113.87,-44.3"/>
<text text-anchor="middle" x="96.5" y="-41.4" font-family="Times,serif" font-size="12.00">V</text>
</g>
<!-- 1&#45;&gt;0 -->
<g id="edge4" class="edge">
<title>1&#45;&gt;0</title>
<path fill="none" stroke="black" d="M124.4,-34.86C118.16,-28.78 109.91,-22.21 101,-19 94.11,-16.52 86.23,-16.31 79.06,-17.02"/>
<polygon fill="black" stroke="black" points="78.47,-15.33 73.74,-17.72 78.93,-18.8 78.47,-15.33"/>
<text text-anchor="middle" x="96.5" y="-22.4" font-family="Times,serif" font-size="12.00">D</text>
</g>
<!-- 1&#45;&gt;1 -->
<g id="edge5" class="edge">
<title>1&#45;&gt;1</title>
<path fill="none" stroke="black" d="M129.97,-64.66C128.41,-74.62 130.75,-84 137,-84 142.18,-84 144.67,-77.57 144.49,-69.7"/>
<polygon fill="black" stroke="black" points="146.23,-69.48 144.03,-64.66 142.74,-69.8 146.23,-69.48"/>
<text text-anchor="middle" x="137" y="-87.4" font-family="Times,serif" font-size="12.00">V</text>
</g>
<!-- 2 -->
<g id="node4" class="node">
<title>2</title>
<ellipse fill="none" stroke="black" cx="223.7" cy="-22" rx="19.87" ry="18"/>
<ellipse fill="none" stroke="black" cx="223.7" cy="-22" rx="23.9" ry="22"/>
<text text-anchor="middle" x="223.7" y="-18.9" font-family="Times,serif" font-size="12.00">VT</text>
</g>
<!-- 1&#45;&gt;2 -->
<g id="edge6" class="edge">
<title>1&#45;&gt;2</title>
<path fill="none" stroke="black" d="M154.79,-43.7C163.02,-41.51 173.07,-38.75 182,-36 186.61,-34.58 191.49,-32.98 196.21,-31.39"/>
<polygon fill="black" stroke="black" points="197.07,-32.94 201.24,-29.67 195.94,-29.63 197.07,-32.94"/>
<text text-anchor="middle" x="177.5" y="-41.4" font-family="Times,serif" font-size="12.00">T</text>
</g>
<!-- 2&#45;&gt;0 -->
<g id="edge7" class="edge">
<title>2&#45;&gt;0</title>
<path fill="none" stroke="black" d="M200.34,-16.91C194.39,-15.59 187.96,-14.21 182,-13 170.04,-10.57 167.15,-9.12 155,-8 127.03,-5.43 119.43,-6.94 92,-13 87.68,-13.95 83.09,-15.06 78.71,-16.17"/>
<polygon fill="black" stroke="black" points="78.09,-14.52 73.68,-17.46 78.96,-17.91 78.09,-14.52"/>
<text text-anchor="middle" x="137" y="-11.4" font-family="Times,serif" font-size="12.00">D, T</text>
</g>
<!-- 2&#45;&gt;1 -->
<g id="edge8" class="edge">
<title>2&#45;&gt;1</title>
<path fill="none" stroke="black" d="M200.38,-16.92C191.62,-15.87 181.62,-15.89 173,-19 165.76,-21.61 158.96,-26.44 153.31,-31.42"/>
<polygon fill="black" stroke="black" points="152.07,-30.18 149.6,-34.86 154.45,-32.75 152.07,-30.18"/>
<text text-anchor="middle" x="177.5" y="-22.4" font-family="Times,serif" font-size="12.00">V</text>
</g>
</g>
</svg>
