<?xml version="1.0" encoding="UTF-8" standalone="no"?>
<!DOCTYPE svg PUBLIC "-//W3C//DTD SVG 1.1//EN"
 "http://www.w3.org/Graphics/SVG/1.1/DTD/svg11.dtd">
<!-- Generated by graphviz version 2.49.3 (20211023.0002)
 -->
<!-- Pages: 1 -->
<svg width="423pt" height="139pt"
 viewBox="0.00 0.00 423.00 139.00" xmlns="http://www.w3.org/2000/svg" xmlns:xlink="http://www.w3.org/1999/xlink">
<g id="graph0" class="graph" transform="scale(1 1) rotate(0) translate(4 135)">
<polygon fill="white" stroke="transparent" points="-4,4 -4,-135 419,-135 419,4 -4,4"/>
<!-- _0_ -->
<!-- 0 -->
<g id="node2" class="node">
<title>0</title>
<ellipse fill="none" stroke="black" cx="56" cy="-85" rx="18" ry="18"/>
</g>
<!-- _0_&#45;&gt;0 -->
<g id="edge1" class="edge">
<title>_0_&#45;&gt;0</title>
<path fill="none" stroke="black" d="M1.15,-85C2.88,-85 18.79,-85 32.87,-85"/>
<polygon fill="black" stroke="black" points="32.94,-86.75 37.94,-85 32.94,-83.25 32.94,-86.75"/>
</g>
<!-- 1 -->
<g id="node3" class="node">
<title>1</title>
<ellipse fill="none" stroke="black" cx="134" cy="-85" rx="18" ry="18"/>
<text text-anchor="middle" x="134" y="-81.9" font-family="Times,serif" font-size="12.00">e</text>
</g>
<!-- 0&#45;&gt;1 -->
<g id="edge2" class="edge">
<title>0&#45;&gt;1</title>
<path fill="none" stroke="black" d="M74.25,-85C85.03,-85 99.04,-85 110.67,-85"/>
<polygon fill="black" stroke="black" points="110.82,-86.75 115.82,-85 110.82,-83.25 110.82,-86.75"/>
<text text-anchor="middle" x="95" y="-88.4" font-family="Times,serif" font-size="12.00">e</text>
</g>
<!-- 2 -->
<g id="node4" class="node">
<title>2</title>
<ellipse fill="none" stroke="black" cx="232" cy="-18" rx="18" ry="18"/>
<text text-anchor="middle" x="232" y="-14.9" font-family="Times,serif" font-size="12.00">i</text>
</g>
<!-- 0&#45;&gt;2 -->
<g id="edge3" class="edge">
<title>0&#45;&gt;2</title>
<path fill="none" stroke="black" d="M70.23,-73.94C81.67,-64.91 99,-52.45 116,-45 146.73,-31.53 185.16,-24.25 208.89,-20.75"/>
<polygon fill="black" stroke="black" points="209.31,-22.45 214.01,-20.02 208.82,-18.99 209.31,-22.45"/>
<text text-anchor="middle" x="134" y="-48.4" font-family="Times,serif" font-size="12.00">i, s</text>
</g>
<!-- 3 -->
<g id="node5" class="node">
<title>3</title>
<ellipse fill="none" stroke="black" cx="319" cy="-75" rx="18" ry="18"/>
<text text-anchor="middle" x="319" y="-71.9" font-family="Times,serif" font-size="12.00">t</text>
</g>
<!-- 0&#45;&gt;3 -->
<g id="edge4" class="edge">
<title>0&#45;&gt;3</title>
<path fill="none" stroke="black" d="M71.86,-94.16C83.41,-100.67 100.09,-108.82 116,-112 189.3,-126.66 211.95,-115.23 283,-92 288.1,-90.33 293.41,-88.06 298.31,-85.72"/>
<polygon fill="black" stroke="black" points="299.34,-87.16 303.04,-83.38 297.79,-84.03 299.34,-87.16"/>
<text text-anchor="middle" x="183" y="-121.4" font-family="Times,serif" font-size="12.00">t</text>
</g>
<!-- 1&#45;&gt;2 -->
<g id="edge5" class="edge">
<title>1&#45;&gt;2</title>
<path fill="none" stroke="black" d="M149.17,-75.11C165.9,-63.44 193.79,-43.97 212.29,-31.06"/>
<polygon fill="black" stroke="black" points="213.68,-32.22 216.78,-27.93 211.68,-29.35 213.68,-32.22"/>
<text text-anchor="middle" x="183" y="-62.4" font-family="Times,serif" font-size="12.00">e, i, s</text>
</g>
<!-- 1&#45;&gt;3 -->
<g id="edge6" class="edge">
<title>1&#45;&gt;3</title>
<path fill="none" stroke="black" d="M152.33,-84.4C179.98,-83.38 235.77,-81.14 283,-78 287.11,-77.73 291.48,-77.39 295.7,-77.04"/>
<polygon fill="black" stroke="black" points="296.09,-78.76 300.92,-76.6 295.79,-75.28 296.09,-78.76"/>
<text text-anchor="middle" x="232" y="-84.4" font-family="Times,serif" font-size="12.00">t</text>
</g>
<!-- 2&#45;&gt;2 -->
<g id="edge7" class="edge">
<title>2&#45;&gt;2</title>
<path fill="none" stroke="black" d="M224.62,-34.66C222.98,-44.62 225.44,-54 232,-54 237.43,-54 240.06,-47.57 239.87,-39.7"/>
<polygon fill="black" stroke="black" points="241.6,-39.47 239.38,-34.66 238.12,-39.81 241.6,-39.47"/>
<text text-anchor="middle" x="232" y="-57.4" font-family="Times,serif" font-size="12.00">e, i, s</text>
</g>
<!-- 2&#45;&gt;3 -->
<g id="edge8" class="edge">
<title>2&#45;&gt;3</title>
<path fill="none" stroke="black" d="M244.31,-31.52C250.72,-38.58 259.21,-46.98 268,-53 276.8,-59.02 287.51,-63.99 296.76,-67.68"/>
<polygon fill="black" stroke="black" points="296.15,-69.32 301.44,-69.49 297.41,-66.06 296.15,-69.32"/>
<text text-anchor="middle" x="275.5" y="-64.4" font-family="Times,serif" font-size="12.00">t</text>
</g>
<!-- 3&#45;&gt;2 -->
<g id="edge9" class="edge">
<title>3&#45;&gt;2</title>
<path fill="none" stroke="black" d="M307.75,-60.38C301.41,-52.25 292.66,-42.5 283,-36 274.48,-30.26 263.91,-26.11 254.68,-23.25"/>
<polygon fill="black" stroke="black" points="255.01,-21.52 249.72,-21.79 254.02,-24.88 255.01,-21.52"/>
<text text-anchor="middle" x="275.5" y="-39.4" font-family="Times,serif" font-size="12.00">i, s</text>
</g>
<!-- 3&#45;&gt;3 -->
<g id="edge10" class="edge">
<title>3&#45;&gt;3</title>
<path fill="none" stroke="black" d="M312.27,-92.04C310.89,-101.86 313.14,-111 319,-111 323.76,-111 326.14,-104.96 326.12,-97.43"/>
<polygon fill="black" stroke="black" points="327.84,-96.9 325.73,-92.04 324.35,-97.15 327.84,-96.9"/>
<text text-anchor="middle" x="319" y="-114.4" font-family="Times,serif" font-size="12.00">t</text>
</g>
<!-- 4 -->
<g id="node6" class="node">
<title>4</title>
<ellipse fill="none" stroke="black" cx="397" cy="-39" rx="18" ry="18"/>
<text text-anchor="middle" x="397" y="-35.9" font-family="Times,serif" font-size="12.00">te</text>
</g>
<!-- 3&#45;&gt;4 -->
<g id="edge11" class="edge">
<title>3&#45;&gt;4</title>
<path fill="none" stroke="black" d="M335.75,-67.54C347.34,-62.05 363.2,-54.54 375.73,-48.6"/>
<polygon fill="black" stroke="black" points="376.76,-50.05 380.53,-46.33 375.27,-46.89 376.76,-50.05"/>
<text text-anchor="middle" x="358" y="-61.4" font-family="Times,serif" font-size="12.00">e</text>
</g>
<!-- 4&#45;&gt;2 -->
<g id="edge12" class="edge">
<title>4&#45;&gt;2</title>
<path fill="none" stroke="black" d="M379.32,-35.35C373.54,-34.17 367,-32.93 361,-32 324.08,-26.3 280.82,-22.08 255.23,-19.83"/>
<polygon fill="black" stroke="black" points="255.17,-18.07 250.04,-19.38 254.87,-21.56 255.17,-18.07"/>
<text text-anchor="middle" x="319" y="-31.4" font-family="Times,serif" font-size="12.00">e, i, s</text>
</g>
<!-- 4&#45;&gt;3 -->
<g id="edge13" class="edge">
<title>4&#45;&gt;3</title>
<path fill="none" stroke="black" d="M379.03,-35.46C371.4,-34.64 362.46,-34.79 355,-38 346.26,-41.76 338.68,-48.91 332.83,-55.92"/>
<polygon fill="black" stroke="black" points="331.14,-55.23 329.42,-60.24 333.89,-57.4 331.14,-55.23"/>
<text text-anchor="middle" x="358" y="-41.4" font-family="Times,serif" font-size="12.00">t</text>
</g>
</g>
</svg>
