<?xml version="1.0" encoding="UTF-8" standalone="no"?>
<!DOCTYPE svg PUBLIC "-//W3C//DTD SVG 1.1//EN"
 "http://www.w3.org/Graphics/SVG/1.1/DTD/svg11.dtd">
<!-- Generated by graphviz version 2.49.3 (20211023.0002)
 -->
<!-- Pages: 1 -->
<svg width="349pt" height="101pt"
 viewBox="0.00 0.00 348.63 101.20" xmlns="http://www.w3.org/2000/svg" xmlns:xlink="http://www.w3.org/1999/xlink">
<g id="graph0" class="graph" transform="scale(1 1) rotate(0) translate(4 97.2)">
<polygon fill="white" stroke="transparent" points="-4,4 -4,-97.2 344.63,-97.2 344.63,4 -4,4"/>
<!-- _0_ -->
<!-- 0 -->
<g id="node2" class="node">
<title>0</title>
<ellipse fill="none" stroke="black" cx="56" cy="-18.2" rx="18" ry="18"/>
<text text-anchor="middle" x="56" y="-15.1" font-family="Times,serif" font-size="12.00">λ</text>
</g>
<!-- _0_&#45;&gt;0 -->
<g id="edge1" class="edge">
<title>_0_&#45;&gt;0</title>
<path fill="none" stroke="black" d="M1.15,-18.2C2.88,-18.2 18.79,-18.2 32.87,-18.2"/>
<polygon fill="black" stroke="black" points="32.94,-19.95 37.94,-18.2 32.94,-16.45 32.94,-19.95"/>
</g>
<!-- 0&#45;&gt;0 -->
<g id="edge2" class="edge">
<title>0&#45;&gt;0</title>
<path fill="none" stroke="black" d="M49.62,-35.24C48.32,-45.06 50.45,-54.2 56,-54.2 60.51,-54.2 62.76,-48.17 62.75,-40.63"/>
<polygon fill="black" stroke="black" points="64.47,-40.11 62.38,-35.24 60.98,-40.35 64.47,-40.11"/>
<text text-anchor="middle" x="56" y="-57.6" font-family="Times,serif" font-size="12.00">e, i, s</text>
</g>
<!-- 1 -->
<g id="node3" class="node">
<title>1</title>
<ellipse fill="none" stroke="black" cx="198.5" cy="-44.2" rx="18.44" ry="18"/>
<text text-anchor="middle" x="198.5" y="-41.1" font-family="Times,serif" font-size="12.00">T:t</text>
</g>
<!-- 0&#45;&gt;1 -->
<g id="edge3" class="edge">
<title>0&#45;&gt;1</title>
<path fill="none" stroke="black" d="M72.73,-25.53C78.66,-28.02 85.53,-30.57 92,-32.2 119.85,-39.22 152.88,-42.14 174.46,-43.35"/>
<polygon fill="black" stroke="black" points="174.61,-45.11 179.69,-43.62 174.79,-41.61 174.61,-45.11"/>
<text text-anchor="middle" x="113" y="-42.6" font-family="Times,serif" font-size="12.00">t:λ</text>
</g>
<!-- 1&#45;&gt;0 -->
<g id="edge4" class="edge">
<title>1&#45;&gt;0</title>
<path fill="none" stroke="black" d="M182.49,-35.11C170.01,-28.11 151.53,-19.01 134,-15.2 115.8,-11.24 94.61,-12.48 79.08,-14.43"/>
<polygon fill="black" stroke="black" points="78.76,-12.7 74.04,-15.11 79.23,-16.17 78.76,-12.7"/>
<text text-anchor="middle" x="113" y="-18.6" font-family="Times,serif" font-size="12.00">i:t i, s:t s</text>
</g>
<!-- 1&#45;&gt;1 -->
<g id="edge5" class="edge">
<title>1&#45;&gt;1</title>
<path fill="none" stroke="black" d="M186.42,-58.24C181.9,-69.11 185.93,-80.2 198.5,-80.2 209.21,-80.2 213.72,-72.16 212.03,-63.06"/>
<polygon fill="black" stroke="black" points="213.7,-62.53 210.58,-58.24 210.35,-63.53 213.7,-62.53"/>
<text text-anchor="middle" x="198.5" y="-83.6" font-family="Times,serif" font-size="12.00">t</text>
</g>
<!-- 2 -->
<g id="node4" class="node">
<title>2</title>
<ellipse fill="none" stroke="black" cx="320.31" cy="-18.2" rx="20.13" ry="18"/>
<text text-anchor="middle" x="320.31" y="-15.1" font-family="Times,serif" font-size="12.00">e:si</text>
</g>
<!-- 1&#45;&gt;2 -->
<g id="edge6" class="edge">
<title>1&#45;&gt;2</title>
<path fill="none" stroke="black" d="M217.1,-42.74C233.95,-41.09 259.99,-37.86 282,-32.2 286.93,-30.93 292.1,-29.24 296.97,-27.47"/>
<polygon fill="black" stroke="black" points="297.66,-29.08 301.72,-25.69 296.43,-25.81 297.66,-29.08"/>
<text text-anchor="middle" x="272.5" y="-38.6" font-family="Times,serif" font-size="12.00">e:λ</text>
</g>
<!-- 2&#45;&gt;0 -->
<g id="edge7" class="edge">
<title>2&#45;&gt;0</title>
<path fill="none" stroke="black" d="M300.41,-13.24C294.54,-11.81 288.03,-10.33 282,-9.2 265.69,-6.14 261.56,-5.31 245,-4.2 177.13,0.36 159.01,3.47 92,-8.2 87.43,-9 82.6,-10.16 78.04,-11.41"/>
<polygon fill="black" stroke="black" points="77.54,-9.73 73.21,-12.79 78.5,-13.1 77.54,-9.73"/>
<text text-anchor="middle" x="198.5" y="-7.6" font-family="Times,serif" font-size="12.00">e:t e e, i:t e i, s:t e s</text>
</g>
<!-- 2&#45;&gt;1 -->
<g id="edge8" class="edge">
<title>2&#45;&gt;1</title>
<path fill="none" stroke="black" d="M300.34,-14.7C289.32,-13.29 275.25,-12.54 263,-15.2 247.53,-18.57 231.31,-26.05 219.13,-32.57"/>
<polygon fill="black" stroke="black" points="218.05,-31.17 214.51,-35.11 219.74,-34.24 218.05,-31.17"/>
<text text-anchor="middle" x="272.5" y="-18.6" font-family="Times,serif" font-size="12.00">t:t e</text>
</g>
</g>
</svg>
