<?xml version="1.0" encoding="UTF-8" standalone="no"?>
<!DOCTYPE svg PUBLIC "-//W3C//DTD SVG 1.1//EN"
 "http://www.w3.org/Graphics/SVG/1.1/DTD/svg11.dtd">
<!-- Generated by graphviz version 2.49.3 (20211023.0002)
 -->
<!-- Pages: 1 -->
<svg width="162pt" height="160pt"
 viewBox="0.00 0.00 161.50 160.00" xmlns="http://www.w3.org/2000/svg" xmlns:xlink="http://www.w3.org/1999/xlink">
<g id="graph0" class="graph" transform="scale(1 1) rotate(0) translate(4 156)">
<polygon fill="white" stroke="transparent" points="-4,4 -4,-156 157.5,-156 157.5,4 -4,4"/>
<!-- _0_ -->
<!-- 0 -->
<g id="node2" class="node">
<title>0</title>
<ellipse fill="none" stroke="black" cx="56" cy="-60" rx="18" ry="18"/>
<text text-anchor="middle" x="56" y="-56.9" font-family="Times,serif" font-size="12.00">1</text>
</g>
<!-- _0_&#45;&gt;0 -->
<g id="edge1" class="edge">
<title>_0_&#45;&gt;0</title>
<path fill="none" stroke="black" d="M1.15,-60C2.88,-60 18.79,-60 32.87,-60"/>
<polygon fill="black" stroke="black" points="32.94,-61.75 37.94,-60 32.94,-58.25 32.94,-61.75"/>
</g>
<!-- 0&#45;&gt;0 -->
<g id="edge2" class="edge">
<title>0&#45;&gt;0</title>
<path fill="none" stroke="black" d="M49.62,-77.04C48.32,-86.86 50.45,-96 56,-96 60.51,-96 62.76,-89.96 62.75,-82.43"/>
<polygon fill="black" stroke="black" points="64.47,-81.91 62.38,-77.04 60.98,-82.15 64.47,-81.91"/>
<text text-anchor="middle" x="56" y="-99.4" font-family="Times,serif" font-size="12.00">b</text>
</g>
<!-- 1 -->
<g id="node3" class="node">
<title>1</title>
<ellipse fill="none" stroke="black" cx="135" cy="-103" rx="18" ry="18"/>
<text text-anchor="middle" x="135" y="-99.9" font-family="Times,serif" font-size="12.00">2</text>
</g>
<!-- 0&#45;&gt;1 -->
<g id="edge3" class="edge">
<title>0&#45;&gt;1</title>
<path fill="none" stroke="black" d="M72.21,-68.5C84.24,-75.21 101.11,-84.63 114.19,-91.94"/>
<polygon fill="black" stroke="black" points="113.6,-93.61 118.82,-94.52 115.31,-90.56 113.6,-93.61"/>
<text text-anchor="middle" x="95.5" y="-85.4" font-family="Times,serif" font-size="12.00">i</text>
</g>
<!-- 2 -->
<g id="node4" class="node">
<title>2</title>
<ellipse fill="none" stroke="black" cx="135" cy="-18" rx="18" ry="18"/>
<text text-anchor="middle" x="135" y="-14.9" font-family="Times,serif" font-size="12.00">3</text>
</g>
<!-- 0&#45;&gt;2 -->
<g id="edge4" class="edge">
<title>0&#45;&gt;2</title>
<path fill="none" stroke="black" d="M72.21,-51.7C84.24,-45.14 101.11,-35.94 114.19,-28.81"/>
<polygon fill="black" stroke="black" points="115.27,-30.21 118.82,-26.28 113.59,-27.14 115.27,-30.21"/>
<text text-anchor="middle" x="95.5" y="-43.4" font-family="Times,serif" font-size="12.00">u</text>
</g>
<!-- 1&#45;&gt;1 -->
<g id="edge5" class="edge">
<title>1&#45;&gt;1</title>
<path fill="none" stroke="black" d="M128.27,-120.04C126.89,-129.86 129.14,-139 135,-139 139.76,-139 142.14,-132.96 142.12,-125.43"/>
<polygon fill="black" stroke="black" points="143.84,-124.9 141.73,-120.04 140.35,-125.15 143.84,-124.9"/>
<text text-anchor="middle" x="135" y="-142.4" font-family="Times,serif" font-size="12.00">b, i, u:i</text>
</g>
<!-- 2&#45;&gt;2 -->
<g id="edge6" class="edge">
<title>2&#45;&gt;2</title>
<path fill="none" stroke="black" d="M128.27,-35.04C126.89,-44.86 129.14,-54 135,-54 139.76,-54 142.14,-47.96 142.12,-40.43"/>
<polygon fill="black" stroke="black" points="143.84,-39.9 141.73,-35.04 140.35,-40.15 143.84,-39.9"/>
<text text-anchor="middle" x="135" y="-57.4" font-family="Times,serif" font-size="12.00">b, i:u, u</text>
</g>
</g>
</svg>
