<?xml version="1.0" encoding="UTF-8" standalone="no"?>
<!DOCTYPE svg PUBLIC "-//W3C//DTD SVG 1.1//EN"
 "http://www.w3.org/Graphics/SVG/1.1/DTD/svg11.dtd">
<!-- Generated by graphviz version 2.49.3 (20211023.0002)
 -->
<!-- Pages: 1 -->
<svg width="421pt" height="146pt"
 viewBox="0.00 0.00 421.40 145.79" xmlns="http://www.w3.org/2000/svg" xmlns:xlink="http://www.w3.org/1999/xlink">
<g id="graph0" class="graph" transform="scale(1 1) rotate(0) translate(4 141.79)">
<polygon fill="white" stroke="transparent" points="-4,4 -4,-141.79 417.4,-141.79 417.4,4 -4,4"/>
<!-- _0_ -->
<!-- 0 -->
<g id="node2" class="node">
<title>0</title>
<ellipse fill="none" stroke="black" cx="56" cy="-30.79" rx="18" ry="18"/>
<text text-anchor="middle" x="56" y="-27.69" font-family="Times,serif" font-size="12.00">λ</text>
</g>
<!-- _0_&#45;&gt;0 -->
<g id="edge1" class="edge">
<title>_0_&#45;&gt;0</title>
<path fill="none" stroke="black" d="M1.15,-30.79C2.88,-30.79 18.79,-30.79 32.87,-30.79"/>
<polygon fill="black" stroke="black" points="32.94,-32.54 37.94,-30.79 32.94,-29.04 32.94,-32.54"/>
</g>
<!-- 1 -->
<g id="node3" class="node">
<title>1</title>
<ellipse fill="none" stroke="black" cx="230" cy="-88.79" rx="18" ry="18"/>
<text text-anchor="middle" x="230" y="-85.69" font-family="Times,serif" font-size="12.00">D</text>
</g>
<!-- 0&#45;&gt;1 -->
<g id="edge2" class="edge">
<title>0&#45;&gt;1</title>
<path fill="none" stroke="black" d="M72.55,-38.69C78.57,-41.66 85.56,-44.99 92,-47.79 131.23,-64.82 179.7,-77.5 207.21,-83.96"/>
<polygon fill="black" stroke="black" points="206.83,-85.67 212.1,-85.1 207.63,-82.26 206.83,-85.67"/>
<text text-anchor="middle" x="136" y="-72.19" font-family="Times,serif" font-size="12.00">D</text>
</g>
<!-- 2 -->
<g id="node4" class="node">
<title>2</title>
<ellipse fill="none" stroke="black" cx="136" cy="-30.79" rx="18" ry="18"/>
<text text-anchor="middle" x="136" y="-27.69" font-family="Times,serif" font-size="12.00">T</text>
</g>
<!-- 0&#45;&gt;2 -->
<g id="edge3" class="edge">
<title>0&#45;&gt;2</title>
<path fill="none" stroke="black" d="M74.31,-30.79C85.62,-30.79 100.5,-30.79 112.69,-30.79"/>
<polygon fill="black" stroke="black" points="112.74,-32.54 117.74,-30.79 112.74,-29.04 112.74,-32.54"/>
<text text-anchor="middle" x="96" y="-34.19" font-family="Times,serif" font-size="12.00">T</text>
</g>
<!-- 4 -->
<g id="node6" class="node">
<title>4</title>
<ellipse fill="none" stroke="black" cx="311" cy="-39.79" rx="18" ry="18"/>
<text text-anchor="middle" x="311" y="-36.69" font-family="Times,serif" font-size="12.00">V</text>
</g>
<!-- 0&#45;&gt;4 -->
<g id="edge4" class="edge">
<title>0&#45;&gt;4</title>
<path fill="none" stroke="black" d="M71.95,-22.05C83.94,-15.57 101.46,-7.28 118,-3.79 179.99,9.32 253.75,-15.87 289.09,-30.45"/>
<polygon fill="black" stroke="black" points="288.73,-32.19 294.02,-32.51 290.09,-28.97 288.73,-32.19"/>
<text text-anchor="middle" x="183" y="-7.19" font-family="Times,serif" font-size="12.00">V</text>
</g>
<!-- 1&#45;&gt;1 -->
<g id="edge5" class="edge">
<title>1&#45;&gt;1</title>
<path fill="none" stroke="black" d="M222.97,-105.45C221.41,-115.41 223.75,-124.79 230,-124.79 235.18,-124.79 237.67,-118.36 237.49,-110.49"/>
<polygon fill="black" stroke="black" points="239.23,-110.27 237.03,-105.45 235.74,-110.59 239.23,-110.27"/>
<text text-anchor="middle" x="230" y="-128.19" font-family="Times,serif" font-size="12.00">D, T</text>
</g>
<!-- 1&#45;&gt;4 -->
<g id="edge6" class="edge">
<title>1&#45;&gt;4</title>
<path fill="none" stroke="black" d="M244.19,-77.64C250.57,-72.5 258.46,-66.52 266,-61.79 273.43,-57.12 281.98,-52.66 289.55,-48.99"/>
<polygon fill="black" stroke="black" points="290.36,-50.54 294.12,-46.81 288.86,-47.38 290.36,-50.54"/>
<text text-anchor="middle" x="270.5" y="-65.19" font-family="Times,serif" font-size="12.00">V</text>
</g>
<!-- 2&#45;&gt;1 -->
<g id="edge7" class="edge">
<title>2&#45;&gt;1</title>
<path fill="none" stroke="black" d="M152.38,-38.31C164.07,-44.23 180.41,-52.93 194,-61.79 199.94,-65.66 206.16,-70.26 211.67,-74.55"/>
<polygon fill="black" stroke="black" points="210.73,-76.03 215.74,-77.75 212.9,-73.28 210.73,-76.03"/>
<text text-anchor="middle" x="183" y="-65.19" font-family="Times,serif" font-size="12.00">D, T</text>
</g>
<!-- 2&#45;&gt;4 -->
<g id="edge8" class="edge">
<title>2&#45;&gt;4</title>
<path fill="none" stroke="black" d="M154.22,-31.68C185.7,-33.32 252.5,-36.79 287.51,-38.62"/>
<polygon fill="black" stroke="black" points="287.77,-40.38 292.85,-38.89 287.95,-36.89 287.77,-40.38"/>
<text text-anchor="middle" x="230" y="-40.19" font-family="Times,serif" font-size="12.00">V</text>
</g>
<!-- 3 -->
<g id="node5" class="node">
<title>3</title>
<ellipse fill="none" stroke="black" cx="393.7" cy="-75.79" rx="19.9" ry="18"/>
<text text-anchor="middle" x="393.7" y="-72.69" font-family="Times,serif" font-size="12.00">VT</text>
</g>
<!-- 3&#45;&gt;1 -->
<g id="edge9" class="edge">
<title>3&#45;&gt;1</title>
<path fill="none" stroke="black" d="M375.8,-83.35C363.19,-88.57 345.38,-95.04 329,-97.79 303.01,-102.15 272.77,-97.99 252.83,-93.99"/>
<polygon fill="black" stroke="black" points="253,-92.24 247.74,-92.93 252.28,-95.66 253,-92.24"/>
<text text-anchor="middle" x="311" y="-102.19" font-family="Times,serif" font-size="12.00">D, T</text>
</g>
<!-- 3&#45;&gt;4 -->
<g id="edge10" class="edge">
<title>3&#45;&gt;4</title>
<path fill="none" stroke="black" d="M381.85,-61.16C375.3,-53.57 366.25,-45.03 356,-40.79 349.25,-37.99 341.4,-37.15 334.22,-37.18"/>
<polygon fill="black" stroke="black" points="333.82,-35.45 328.89,-37.37 333.94,-38.94 333.82,-35.45"/>
<text text-anchor="middle" x="351.5" y="-44.19" font-family="Times,serif" font-size="12.00">V</text>
</g>
<!-- 4&#45;&gt;1 -->
<g id="edge11" class="edge">
<title>4&#45;&gt;1</title>
<path fill="none" stroke="black" d="M298.94,-53.69C292.6,-60.86 284.1,-69.25 275,-74.79 268.32,-78.85 260.35,-81.85 253.04,-84"/>
<polygon fill="black" stroke="black" points="252.46,-82.35 248.1,-85.36 253.39,-85.72 252.46,-82.35"/>
<text text-anchor="middle" x="270.5" y="-82.19" font-family="Times,serif" font-size="12.00">D</text>
</g>
<!-- 4&#45;&gt;3 -->
<g id="edge12" class="edge">
<title>4&#45;&gt;3</title>
<path fill="none" stroke="black" d="M327.94,-46.9C340.22,-52.37 357.31,-60 370.86,-66.04"/>
<polygon fill="black" stroke="black" points="370.39,-67.75 375.67,-68.19 371.82,-64.56 370.39,-67.75"/>
<text text-anchor="middle" x="351.5" y="-62.19" font-family="Times,serif" font-size="12.00">T</text>
</g>
<!-- 4&#45;&gt;4 -->
<g id="edge13" class="edge">
<title>4&#45;&gt;4</title>
<path fill="none" stroke="black" d="M303.97,-56.45C302.41,-66.41 304.75,-75.79 311,-75.79 316.18,-75.79 318.67,-69.36 318.49,-61.49"/>
<polygon fill="black" stroke="black" points="320.23,-61.27 318.03,-56.45 316.74,-61.59 320.23,-61.27"/>
<text text-anchor="middle" x="311" y="-79.19" font-family="Times,serif" font-size="12.00">V</text>
</g>
</g>
</svg>
