<?xml version="1.0" encoding="UTF-8" standalone="no"?>
<!DOCTYPE svg PUBLIC "-//W3C//DTD SVG 1.1//EN"
 "http://www.w3.org/Graphics/SVG/1.1/DTD/svg11.dtd">
<!-- Generated by graphviz version 2.49.3 (20211023.0002)
 -->
<!-- Pages: 1 -->
<svg width="316pt" height="102pt"
 viewBox="0.00 0.00 315.94 101.83" xmlns="http://www.w3.org/2000/svg" xmlns:xlink="http://www.w3.org/1999/xlink">
<g id="graph0" class="graph" transform="scale(1 1) rotate(0) translate(4 97.83)">
<polygon fill="white" stroke="transparent" points="-4,4 -4,-97.83 311.94,-97.83 311.94,4 -4,4"/>
<!-- _0_ -->
<!-- 0 -->
<g id="node2" class="node">
<title>0</title>
<ellipse fill="none" stroke="black" cx="56" cy="-18.83" rx="18" ry="18"/>
<text text-anchor="middle" x="56" y="-15.73" font-family="Times,serif" font-size="12.00">λ</text>
</g>
<!-- _0_&#45;&gt;0 -->
<g id="edge1" class="edge">
<title>_0_&#45;&gt;0</title>
<path fill="none" stroke="black" d="M1.15,-18.83C2.88,-18.83 18.79,-18.83 32.87,-18.83"/>
<polygon fill="black" stroke="black" points="32.94,-20.58 37.94,-18.83 32.94,-17.08 32.94,-20.58"/>
</g>
<!-- 0&#45;&gt;0 -->
<g id="edge2" class="edge">
<title>0&#45;&gt;0</title>
<path fill="none" stroke="black" d="M49.62,-35.87C48.32,-45.69 50.45,-54.83 56,-54.83 60.51,-54.83 62.76,-48.8 62.75,-41.27"/>
<polygon fill="black" stroke="black" points="64.47,-40.74 62.38,-35.87 60.98,-40.98 64.47,-40.74"/>
<text text-anchor="middle" x="56" y="-58.23" font-family="Times,serif" font-size="12.00">D:D, T:T</text>
</g>
<!-- 1 -->
<g id="node3" class="node">
<title>1</title>
<ellipse fill="none" stroke="black" cx="160.5" cy="-44.83" rx="18" ry="18"/>
<text text-anchor="middle" x="160.5" y="-41.73" font-family="Times,serif" font-size="12.00">V</text>
</g>
<!-- 0&#45;&gt;1 -->
<g id="edge3" class="edge">
<title>0&#45;&gt;1</title>
<path fill="none" stroke="black" d="M72.79,-25.94C78.72,-28.4 85.58,-31 92,-32.83 106.85,-37.07 123.99,-40.1 137.28,-42.05"/>
<polygon fill="black" stroke="black" points="137.16,-43.8 142.36,-42.77 137.66,-40.34 137.16,-43.8"/>
<text text-anchor="middle" x="102.5" y="-40.23" font-family="Times,serif" font-size="12.00">V:V</text>
</g>
<!-- 1&#45;&gt;0 -->
<g id="edge4" class="edge">
<title>1&#45;&gt;0</title>
<path fill="none" stroke="black" d="M146.23,-33.74C137.42,-27.12 125.26,-19.34 113,-15.83 102.06,-12.7 89.44,-13.05 78.95,-14.36"/>
<polygon fill="black" stroke="black" points="78.69,-12.63 73.99,-15.07 79.18,-16.1 78.69,-12.63"/>
<text text-anchor="middle" x="102.5" y="-19.23" font-family="Times,serif" font-size="12.00">D:D</text>
</g>
<!-- 1&#45;&gt;1 -->
<g id="edge5" class="edge">
<title>1&#45;&gt;1</title>
<path fill="none" stroke="black" d="M150.69,-60C147.71,-70.5 150.98,-80.83 160.5,-80.83 168.38,-80.83 171.98,-73.74 171.29,-65.35"/>
<polygon fill="black" stroke="black" points="172.94,-64.6 170.31,-60 169.49,-65.23 172.94,-64.6"/>
<text text-anchor="middle" x="160.5" y="-84.23" font-family="Times,serif" font-size="12.00">V:V</text>
</g>
<!-- 2 -->
<g id="node4" class="node">
<title>2</title>
<ellipse fill="none" stroke="black" cx="281.47" cy="-18.83" rx="26.44" ry="18"/>
<text text-anchor="middle" x="281.47" y="-15.73" font-family="Times,serif" font-size="12.00">VT:T</text>
</g>
<!-- 1&#45;&gt;2 -->
<g id="edge6" class="edge">
<title>1&#45;&gt;2</title>
<path fill="none" stroke="black" d="M178.44,-42.9C193.84,-40.96 217.12,-37.58 237,-32.83 242.09,-31.62 247.44,-30.1 252.59,-28.51"/>
<polygon fill="black" stroke="black" points="253.41,-30.09 257.65,-26.91 252.35,-26.75 253.41,-30.09"/>
<text text-anchor="middle" x="222.5" y="-41.23" font-family="Times,serif" font-size="12.00">T:λ</text>
</g>
<!-- 2&#45;&gt;0 -->
<g id="edge7" class="edge">
<title>2&#45;&gt;0</title>
<path fill="none" stroke="black" d="M256.72,-11.98C250.36,-10.38 243.46,-8.85 237,-7.83 173.33,2.17 155.28,3.36 92,-8.83 87.44,-9.71 82.62,-10.91 78.06,-12.17"/>
<polygon fill="black" stroke="black" points="77.56,-10.49 73.24,-13.55 78.53,-13.85 77.56,-10.49"/>
<text text-anchor="middle" x="160.5" y="-5.23" font-family="Times,serif" font-size="12.00">D:TD, T:TT</text>
</g>
<!-- 2&#45;&gt;1 -->
<g id="edge8" class="edge">
<title>2&#45;&gt;1</title>
<path fill="none" stroke="black" d="M255.86,-14C241.61,-12.15 223.5,-11.4 208,-15.83 197.66,-18.79 187.38,-24.79 179.13,-30.57"/>
<polygon fill="black" stroke="black" points="177.78,-29.39 174.77,-33.74 179.84,-32.22 177.78,-29.39"/>
<text text-anchor="middle" x="222.5" y="-19.23" font-family="Times,serif" font-size="12.00">V:DV</text>
</g>
</g>
</svg>
