<?xml version="1.0" encoding="UTF-8" standalone="no"?>
<!DOCTYPE svg PUBLIC "-//W3C//DTD SVG 1.1//EN"
 "http://www.w3.org/Graphics/SVG/1.1/DTD/svg11.dtd">
<!-- Generated by graphviz version 2.49.3 (20211023.0002)
 -->
<!-- Pages: 1 -->
<svg width="325pt" height="83pt"
 viewBox="0.00 0.00 325.00 83.00" xmlns="http://www.w3.org/2000/svg" xmlns:xlink="http://www.w3.org/1999/xlink">
<g id="graph0" class="graph" transform="scale(1 1) rotate(0) translate(4 79)">
<polygon fill="white" stroke="transparent" points="-4,4 -4,-79 321,-79 321,4 -4,4"/>
<!-- _0_ -->
<!-- 0 -->
<g id="node2" class="node">
<title>0</title>
<ellipse fill="none" stroke="black" cx="56" cy="-22" rx="18" ry="18"/>
<text text-anchor="middle" x="56" y="-18.9" font-family="Times,serif" font-size="12.00">1</text>
</g>
<!-- _0_&#45;&gt;0 -->
<g id="edge1" class="edge">
<title>_0_&#45;&gt;0</title>
<path fill="none" stroke="black" d="M1.15,-22C2.88,-22 18.79,-22 32.87,-22"/>
<polygon fill="black" stroke="black" points="32.94,-23.75 37.94,-22 32.94,-20.25 32.94,-23.75"/>
</g>
<!-- 0&#45;&gt;0 -->
<g id="edge2" class="edge">
<title>0&#45;&gt;0</title>
<path fill="none" stroke="black" d="M49.62,-39.04C48.32,-48.86 50.45,-58 56,-58 60.51,-58 62.76,-51.96 62.75,-44.43"/>
<polygon fill="black" stroke="black" points="64.47,-43.91 62.38,-39.04 60.98,-44.15 64.47,-43.91"/>
<text text-anchor="middle" x="56" y="-61.4" font-family="Times,serif" font-size="12.00">b, c</text>
</g>
<!-- 1 -->
<g id="node3" class="node">
<title>1</title>
<ellipse fill="none" stroke="black" cx="134" cy="-22" rx="18" ry="18"/>
<text text-anchor="middle" x="134" y="-18.9" font-family="Times,serif" font-size="12.00">2</text>
</g>
<!-- 0&#45;&gt;1 -->
<g id="edge3" class="edge">
<title>0&#45;&gt;1</title>
<path fill="none" stroke="black" d="M74.25,-22C85.03,-22 99.04,-22 110.67,-22"/>
<polygon fill="black" stroke="black" points="110.82,-23.75 115.82,-22 110.82,-20.25 110.82,-23.75"/>
<text text-anchor="middle" x="95" y="-25.4" font-family="Times,serif" font-size="12.00">a</text>
</g>
<!-- 1&#45;&gt;0 -->
<g id="edge4" class="edge">
<title>1&#45;&gt;0</title>
<path fill="none" stroke="black" d="M118.97,-11.39C111.22,-6.78 101.31,-2.86 92,-5 86.77,-6.2 81.41,-8.3 76.51,-10.62"/>
<polygon fill="black" stroke="black" points="75.47,-9.18 71.78,-12.98 77.03,-12.31 75.47,-9.18"/>
<text text-anchor="middle" x="95" y="-8.4" font-family="Times,serif" font-size="12.00">c</text>
</g>
<!-- 1&#45;&gt;1 -->
<g id="edge5" class="edge">
<title>1&#45;&gt;1</title>
<path fill="none" stroke="black" d="M127.27,-39.04C125.89,-48.86 128.14,-58 134,-58 138.76,-58 141.14,-51.96 141.12,-44.43"/>
<polygon fill="black" stroke="black" points="142.84,-43.9 140.73,-39.04 139.35,-44.15 142.84,-43.9"/>
<text text-anchor="middle" x="134" y="-61.4" font-family="Times,serif" font-size="12.00">a</text>
</g>
<!-- 2 -->
<g id="node4" class="node">
<title>2</title>
<ellipse fill="none" stroke="black" cx="213" cy="-22" rx="18" ry="18"/>
<text text-anchor="middle" x="213" y="-18.9" font-family="Times,serif" font-size="12.00">3</text>
</g>
<!-- 1&#45;&gt;2 -->
<g id="edge6" class="edge">
<title>1&#45;&gt;2</title>
<path fill="none" stroke="black" d="M152.09,-22C163.15,-22 177.68,-22 189.66,-22"/>
<polygon fill="black" stroke="black" points="189.96,-23.75 194.96,-22 189.96,-20.25 189.96,-23.75"/>
<text text-anchor="middle" x="173.5" y="-25.4" font-family="Times,serif" font-size="12.00">b</text>
</g>
<!-- 2&#45;&gt;2 -->
<g id="edge7" class="edge">
<title>2&#45;&gt;2</title>
<path fill="none" stroke="black" d="M206.27,-39.04C204.89,-48.86 207.14,-58 213,-58 217.76,-58 220.14,-51.96 220.12,-44.43"/>
<polygon fill="black" stroke="black" points="221.84,-43.9 219.73,-39.04 218.35,-44.15 221.84,-43.9"/>
<text text-anchor="middle" x="213" y="-61.4" font-family="Times,serif" font-size="12.00">a, b</text>
</g>
<!-- 3 -->
<g id="node5" class="node">
<title>3</title>
<ellipse fill="none" stroke="black" cx="295" cy="-22" rx="18" ry="18"/>
<ellipse fill="none" stroke="black" cx="295" cy="-22" rx="22" ry="22"/>
<text text-anchor="middle" x="295" y="-18.9" font-family="Times,serif" font-size="12.00">4</text>
</g>
<!-- 2&#45;&gt;3 -->
<g id="edge8" class="edge">
<title>2&#45;&gt;3</title>
<path fill="none" stroke="black" d="M231.36,-22C242.05,-22 255.97,-22 267.97,-22"/>
<polygon fill="black" stroke="black" points="267.98,-23.75 272.98,-22 267.98,-20.25 267.98,-23.75"/>
<text text-anchor="middle" x="252" y="-25.4" font-family="Times,serif" font-size="12.00">c</text>
</g>
<!-- 3&#45;&gt;3 -->
<g id="edge9" class="edge">
<title>3&#45;&gt;3</title>
<path fill="none" stroke="black" d="M287.32,-42.99C286.37,-53.09 288.93,-62 295,-62 300.03,-62 302.65,-55.89 302.86,-48.05"/>
<polygon fill="black" stroke="black" points="304.61,-47.93 302.68,-42.99 301.11,-48.05 304.61,-47.93"/>
<text text-anchor="middle" x="295" y="-65.4" font-family="Times,serif" font-size="12.00">a, b, c</text>
</g>
</g>
</svg>
