<?xml version="1.0" encoding="UTF-8" standalone="no"?>
<!DOCTYPE svg PUBLIC "-//W3C//DTD SVG 1.1//EN"
 "http://www.w3.org/Graphics/SVG/1.1/DTD/svg11.dtd">
<!-- Generated by graphviz version 2.49.3 (20211023.0002)
 -->
<!-- Pages: 1 -->
<svg width="377pt" height="206pt"
 viewBox="0.00 0.00 376.52 206.00" xmlns="http://www.w3.org/2000/svg" xmlns:xlink="http://www.w3.org/1999/xlink">
<g id="graph0" class="graph" transform="scale(1 1) rotate(0) translate(4 202)">
<polygon fill="white" stroke="transparent" points="-4,4 -4,-202 372.52,-202 372.52,4 -4,4"/>
<!-- _0_ -->
<!-- 0 -->
<g id="node2" class="node">
<title>0</title>
<ellipse fill="none" stroke="black" cx="60.47" cy="-115" rx="18.44" ry="18"/>
<ellipse fill="none" stroke="black" cx="60.47" cy="-115" rx="22.44" ry="22"/>
<text text-anchor="middle" x="60.47" y="-111.9" font-family="Times,serif" font-size="12.00">&lt;&gt;</text>
</g>
<!-- _0_&#45;&gt;0 -->
<g id="edge1" class="edge">
<title>_0_&#45;&gt;0</title>
<path fill="none" stroke="black" d="M1.17,-115C2.92,-115 18.13,-115 32.57,-115"/>
<polygon fill="black" stroke="black" points="32.83,-116.75 37.83,-115 32.83,-113.25 32.83,-116.75"/>
</g>
<!-- 1 -->
<g id="node3" class="node">
<title>1</title>
<ellipse fill="none" stroke="black" cx="152.1" cy="-115" rx="21.58" ry="18"/>
<ellipse fill="none" stroke="black" cx="152.1" cy="-115" rx="25.59" ry="22"/>
<text text-anchor="middle" x="152.1" y="-111.9" font-family="Times,serif" font-size="12.00">&lt;a&gt;</text>
</g>
<!-- 0&#45;&gt;1 -->
<g id="edge2" class="edge">
<title>0&#45;&gt;1</title>
<path fill="none" stroke="black" d="M83.16,-115C94.59,-115 108.77,-115 121.22,-115"/>
<polygon fill="black" stroke="black" points="121.43,-116.75 126.43,-115 121.43,-113.25 121.43,-116.75"/>
<text text-anchor="middle" x="104.44" y="-118.4" font-family="Times,serif" font-size="12.00">a</text>
</g>
<!-- 3 -->
<g id="node5" class="node">
<title>3</title>
<ellipse fill="none" stroke="black" cx="152.1" cy="-22" rx="22.3" ry="18"/>
<ellipse fill="none" stroke="black" cx="152.1" cy="-22" rx="26.32" ry="22"/>
<text text-anchor="middle" x="152.1" y="-18.9" font-family="Times,serif" font-size="12.00">&lt;b&gt;</text>
</g>
<!-- 0&#45;&gt;3 -->
<g id="edge3" class="edge">
<title>0&#45;&gt;3</title>
<path fill="none" stroke="black" d="M76.67,-99.22C91.72,-83.61 114.82,-59.64 131.29,-42.55"/>
<polygon fill="black" stroke="black" points="132.7,-43.61 134.91,-38.8 130.18,-41.18 132.7,-43.61"/>
<text text-anchor="middle" x="104.44" y="-74.4" font-family="Times,serif" font-size="12.00">b</text>
</g>
<!-- 4 -->
<g id="node6" class="node">
<title>4</title>
<ellipse fill="none" stroke="black" cx="342.97" cy="-133" rx="21.58" ry="18"/>
<ellipse fill="none" stroke="black" cx="342.97" cy="-133" rx="25.59" ry="22"/>
<text text-anchor="middle" x="342.97" y="-129.9" font-family="Times,serif" font-size="12.00">&lt;c&gt;</text>
</g>
<!-- 0&#45;&gt;4 -->
<g id="edge4" class="edge">
<title>0&#45;&gt;4</title>
<path fill="none" stroke="black" d="M73.9,-133.02C85.42,-147.98 104.04,-168.18 125.94,-177 191.74,-203.51 275.51,-168.56 316.73,-147.26"/>
<polygon fill="black" stroke="black" points="317.69,-148.73 321.31,-144.86 316.07,-145.63 317.69,-148.73"/>
<text text-anchor="middle" x="199.76" y="-188.4" font-family="Times,serif" font-size="12.00">c</text>
</g>
<!-- 1&#45;&gt;1 -->
<g id="edge5" class="edge">
<title>1&#45;&gt;1</title>
<path fill="none" stroke="black" d="M143.68,-135.99C142.64,-146.09 145.45,-155 152.1,-155 157.6,-155 160.47,-148.89 160.71,-141.05"/>
<polygon fill="black" stroke="black" points="162.45,-140.92 160.51,-135.99 158.95,-141.05 162.45,-140.92"/>
<text text-anchor="middle" x="152.1" y="-158.4" font-family="Times,serif" font-size="12.00">a</text>
</g>
<!-- 2 -->
<g id="node4" class="node">
<title>2</title>
<ellipse fill="none" stroke="black" cx="248.34" cy="-70" rx="27.17" ry="18"/>
<text text-anchor="middle" x="248.34" y="-66.9" font-family="Times,serif" font-size="12.00">&lt;b a&gt;</text>
</g>
<!-- 1&#45;&gt;2 -->
<g id="edge6" class="edge">
<title>1&#45;&gt;2</title>
<path fill="none" stroke="black" d="M174.96,-104.56C188.73,-97.98 206.6,-89.45 221.14,-82.51"/>
<polygon fill="black" stroke="black" points="222.17,-83.96 225.93,-80.23 220.66,-80.8 222.17,-83.96"/>
<text text-anchor="middle" x="199.76" y="-96.4" font-family="Times,serif" font-size="12.00">b</text>
</g>
<!-- 1&#45;&gt;4 -->
<g id="edge7" class="edge">
<title>1&#45;&gt;4</title>
<path fill="none" stroke="black" d="M176.94,-120.44C189.96,-123.18 206.42,-126.29 221.26,-128 252.19,-131.57 287.84,-132.68 312.33,-132.98"/>
<polygon fill="black" stroke="black" points="312.37,-134.74 317.38,-133.04 312.4,-131.24 312.37,-134.74"/>
<text text-anchor="middle" x="248.34" y="-134.4" font-family="Times,serif" font-size="12.00">c</text>
</g>
<!-- 2&#45;&gt;2 -->
<g id="edge8" class="edge">
<title>2&#45;&gt;2</title>
<path fill="none" stroke="black" d="M239.77,-87.41C238.17,-97.09 241.03,-106 248.34,-106 254.28,-106 257.28,-100.12 257.34,-92.72"/>
<polygon fill="black" stroke="black" points="259.06,-92.25 256.91,-87.41 255.57,-92.53 259.06,-92.25"/>
<text text-anchor="middle" x="248.34" y="-109.4" font-family="Times,serif" font-size="12.00">a, b</text>
</g>
<!-- 2&#45;&gt;4 -->
<g id="edge9" class="edge">
<title>2&#45;&gt;4</title>
<path fill="none" stroke="black" d="M268.09,-82.75C282.49,-92.54 302.48,-106.14 318.04,-116.72"/>
<polygon fill="black" stroke="black" points="317.18,-118.25 322.3,-119.62 319.15,-115.36 317.18,-118.25"/>
<text text-anchor="middle" x="296.43" y="-106.4" font-family="Times,serif" font-size="12.00">c</text>
</g>
<!-- 3&#45;&gt;2 -->
<g id="edge10" class="edge">
<title>3&#45;&gt;2</title>
<path fill="none" stroke="black" d="M174.96,-33.13C188.83,-40.2 206.85,-49.38 221.45,-56.81"/>
<polygon fill="black" stroke="black" points="221,-58.55 226.25,-59.26 222.59,-55.43 221,-58.55"/>
<text text-anchor="middle" x="199.76" y="-50.4" font-family="Times,serif" font-size="12.00">a</text>
</g>
<!-- 3&#45;&gt;3 -->
<g id="edge11" class="edge">
<title>3&#45;&gt;3</title>
<path fill="none" stroke="black" d="M143.68,-42.99C142.64,-53.09 145.45,-62 152.1,-62 157.6,-62 160.47,-55.89 160.71,-48.05"/>
<polygon fill="black" stroke="black" points="162.45,-47.92 160.51,-42.99 158.95,-48.05 162.45,-47.92"/>
<text text-anchor="middle" x="152.1" y="-65.4" font-family="Times,serif" font-size="12.00">b</text>
</g>
<!-- 3&#45;&gt;4 -->
<g id="edge12" class="edge">
<title>3&#45;&gt;4</title>
<path fill="none" stroke="black" d="M177.96,-17.44C204.1,-13.99 245.52,-12.42 275.43,-30 304.51,-47.09 323.08,-82.48 333.02,-106.97"/>
<polygon fill="black" stroke="black" points="331.43,-107.7 334.89,-111.71 334.68,-106.42 331.43,-107.7"/>
<text text-anchor="middle" x="248.34" y="-33.4" font-family="Times,serif" font-size="12.00">c</text>
</g>
<!-- 4&#45;&gt;4 -->
<g id="edge13" class="edge">
<title>4&#45;&gt;4</title>
<path fill="none" stroke="black" d="M334.56,-153.99C333.52,-164.09 336.33,-173 342.97,-173 348.48,-173 351.35,-166.89 351.58,-159.05"/>
<polygon fill="black" stroke="black" points="353.33,-158.92 351.39,-153.99 349.83,-159.05 353.33,-158.92"/>
<text text-anchor="middle" x="342.97" y="-176.4" font-family="Times,serif" font-size="12.00">a, b, c</text>
</g>
</g>
</svg>
