<?xml version="1.0" encoding="UTF-8" standalone="no"?>
<!DOCTYPE svg PUBLIC "-//W3C//DTD SVG 1.1//EN"
 "http://www.w3.org/Graphics/SVG/1.1/DTD/svg11.dtd">
<!-- Generated by graphviz version 2.49.3 (20211023.0002)
 -->
<!-- Pages: 1 -->
<svg width="342pt" height="189pt"
 viewBox="0.00 0.00 342.00 188.51" xmlns="http://www.w3.org/2000/svg" xmlns:xlink="http://www.w3.org/1999/xlink">
<g id="graph0" class="graph" transform="scale(1 1) rotate(0) translate(4 184.51)">
<polygon fill="white" stroke="transparent" points="-4,4 -4,-184.51 338,-184.51 338,4 -4,4"/>
<!-- _0_ -->
<!-- 0 -->
<g id="node2" class="node">
<title>0</title>
<ellipse fill="none" stroke="black" cx="60" cy="-34.51" rx="18" ry="18"/>
<ellipse fill="none" stroke="black" cx="60" cy="-34.51" rx="22" ry="22"/>
<text text-anchor="middle" x="60" y="-31.41" font-family="Times,serif" font-size="12.00">1</text>
</g>
<!-- _0_&#45;&gt;0 -->
<g id="edge1" class="edge">
<title>_0_&#45;&gt;0</title>
<path fill="none" stroke="black" d="M1.17,-34.51C2.92,-34.51 18.2,-34.51 32.61,-34.51"/>
<polygon fill="black" stroke="black" points="32.86,-36.26 37.86,-34.51 32.86,-32.76 32.86,-36.26"/>
</g>
<!-- 1 -->
<g id="node3" class="node">
<title>1</title>
<ellipse fill="none" stroke="black" cx="147" cy="-127.51" rx="18" ry="18"/>
<ellipse fill="none" stroke="black" cx="147" cy="-127.51" rx="22" ry="22"/>
<text text-anchor="middle" x="147" y="-124.41" font-family="Times,serif" font-size="12.00">2</text>
</g>
<!-- 0&#45;&gt;1 -->
<g id="edge2" class="edge">
<title>0&#45;&gt;1</title>
<path fill="none" stroke="black" d="M75.42,-50.29C89.95,-66.19 112.41,-90.76 128.08,-107.9"/>
<polygon fill="black" stroke="black" points="126.85,-109.15 131.51,-111.66 129.43,-106.79 126.85,-109.15"/>
<text text-anchor="middle" x="103.5" y="-86.91" font-family="Times,serif" font-size="12.00">b</text>
</g>
<!-- 2 -->
<g id="node4" class="node">
<title>2</title>
<ellipse fill="none" stroke="black" cx="312" cy="-54.51" rx="18" ry="18"/>
<ellipse fill="none" stroke="black" cx="312" cy="-54.51" rx="22" ry="22"/>
<text text-anchor="middle" x="312" y="-51.41" font-family="Times,serif" font-size="12.00">3</text>
</g>
<!-- 0&#45;&gt;2 -->
<g id="edge3" class="edge">
<title>0&#45;&gt;2</title>
<path fill="none" stroke="black" d="M78.94,-23.09C91.34,-15.91 108.51,-7.29 125,-3.51 184.5,10.14 253.59,-21.52 288.43,-40.87"/>
<polygon fill="black" stroke="black" points="287.7,-42.47 292.91,-43.4 289.42,-39.42 287.7,-42.47"/>
<text text-anchor="middle" x="190.5" y="-6.91" font-family="Times,serif" font-size="12.00">c</text>
</g>
<!-- 3 -->
<g id="node5" class="node">
<title>3</title>
<ellipse fill="none" stroke="black" cx="147" cy="-34.51" rx="18" ry="18"/>
<ellipse fill="none" stroke="black" cx="147" cy="-34.51" rx="22" ry="22"/>
<text text-anchor="middle" x="147" y="-31.41" font-family="Times,serif" font-size="12.00">4</text>
</g>
<!-- 0&#45;&gt;3 -->
<g id="edge4" class="edge">
<title>0&#45;&gt;3</title>
<path fill="none" stroke="black" d="M82.01,-34.51C93.45,-34.51 107.72,-34.51 119.87,-34.51"/>
<polygon fill="black" stroke="black" points="119.94,-36.26 124.94,-34.51 119.94,-32.76 119.94,-36.26"/>
<text text-anchor="middle" x="103.5" y="-37.91" font-family="Times,serif" font-size="12.00">a</text>
</g>
<!-- 1&#45;&gt;1 -->
<g id="edge5" class="edge">
<title>1&#45;&gt;1</title>
<path fill="none" stroke="black" d="M139.32,-148.5C138.37,-158.6 140.93,-167.51 147,-167.51 152.03,-167.51 154.65,-161.4 154.86,-153.56"/>
<polygon fill="black" stroke="black" points="156.61,-153.44 154.68,-148.5 153.11,-153.56 156.61,-153.44"/>
<text text-anchor="middle" x="147" y="-170.91" font-family="Times,serif" font-size="12.00">b</text>
</g>
<!-- 1&#45;&gt;2 -->
<g id="edge6" class="edge">
<title>1&#45;&gt;2</title>
<path fill="none" stroke="black" d="M167.92,-135.52C188.95,-142.64 222.53,-150.16 248,-137.51 272.3,-125.45 289.75,-99.03 300.04,-79.22"/>
<polygon fill="black" stroke="black" points="301.68,-79.85 302.37,-74.59 298.56,-78.27 301.68,-79.85"/>
<text text-anchor="middle" x="230" y="-146.91" font-family="Times,serif" font-size="12.00">c</text>
</g>
<!-- 4 -->
<g id="node6" class="node">
<title>4</title>
<ellipse fill="none" stroke="black" cx="230" cy="-79.51" rx="18" ry="18"/>
<text text-anchor="middle" x="230" y="-76.41" font-family="Times,serif" font-size="12.00">5</text>
</g>
<!-- 1&#45;&gt;4 -->
<g id="edge7" class="edge">
<title>1&#45;&gt;4</title>
<path fill="none" stroke="black" d="M166.38,-116.62C179.27,-108.98 196.46,-98.79 209.58,-91.02"/>
<polygon fill="black" stroke="black" points="210.8,-92.33 214.21,-88.28 209.01,-89.32 210.8,-92.33"/>
<text text-anchor="middle" x="190.5" y="-106.91" font-family="Times,serif" font-size="12.00">a</text>
</g>
<!-- 2&#45;&gt;2 -->
<g id="edge8" class="edge">
<title>2&#45;&gt;2</title>
<path fill="none" stroke="black" d="M304.32,-75.5C303.37,-85.6 305.93,-94.51 312,-94.51 317.03,-94.51 319.65,-88.4 319.86,-80.56"/>
<polygon fill="black" stroke="black" points="321.61,-80.44 319.68,-75.5 318.11,-80.56 321.61,-80.44"/>
<text text-anchor="middle" x="312" y="-97.91" font-family="Times,serif" font-size="12.00">a, b, c</text>
</g>
<!-- 3&#45;&gt;2 -->
<g id="edge9" class="edge">
<title>3&#45;&gt;2</title>
<path fill="none" stroke="black" d="M169.18,-34.44C189.49,-34.65 220.98,-35.65 248,-39.51 260.55,-41.3 274.26,-44.43 285.68,-47.36"/>
<polygon fill="black" stroke="black" points="285.47,-49.11 290.75,-48.69 286.36,-45.73 285.47,-49.11"/>
<text text-anchor="middle" x="230" y="-42.91" font-family="Times,serif" font-size="12.00">c</text>
</g>
<!-- 3&#45;&gt;3 -->
<g id="edge10" class="edge">
<title>3&#45;&gt;3</title>
<path fill="none" stroke="black" d="M139.32,-55.5C138.37,-65.6 140.93,-74.51 147,-74.51 152.03,-74.51 154.65,-68.4 154.86,-60.56"/>
<polygon fill="black" stroke="black" points="156.61,-60.44 154.68,-55.5 153.11,-60.56 156.61,-60.44"/>
<text text-anchor="middle" x="147" y="-77.91" font-family="Times,serif" font-size="12.00">a</text>
</g>
<!-- 3&#45;&gt;4 -->
<g id="edge11" class="edge">
<title>3&#45;&gt;4</title>
<path fill="none" stroke="black" d="M166.79,-44.95C179.52,-52.02 196.33,-61.36 209.26,-68.54"/>
<polygon fill="black" stroke="black" points="208.62,-70.19 213.84,-71.09 210.31,-67.13 208.62,-70.19"/>
<text text-anchor="middle" x="190.5" y="-62.91" font-family="Times,serif" font-size="12.00">b</text>
</g>
<!-- 4&#45;&gt;2 -->
<g id="edge12" class="edge">
<title>4&#45;&gt;2</title>
<path fill="none" stroke="black" d="M247.58,-74.33C258.65,-70.87 273.41,-66.26 285.91,-62.35"/>
<polygon fill="black" stroke="black" points="286.51,-64 290.76,-60.84 285.46,-60.66 286.51,-64"/>
<text text-anchor="middle" x="269" y="-70.91" font-family="Times,serif" font-size="12.00">c</text>
</g>
<!-- 4&#45;&gt;4 -->
<g id="edge13" class="edge">
<title>4&#45;&gt;4</title>
<path fill="none" stroke="black" d="M223.27,-96.55C221.89,-106.37 224.14,-115.51 230,-115.51 234.76,-115.51 237.14,-109.48 237.12,-101.94"/>
<polygon fill="black" stroke="black" points="238.84,-101.41 236.73,-96.55 235.35,-101.66 238.84,-101.41"/>
<text text-anchor="middle" x="230" y="-118.91" font-family="Times,serif" font-size="12.00">a, b</text>
</g>
</g>
</svg>
