<?xml version="1.0" encoding="UTF-8" standalone="no"?>
<!DOCTYPE svg PUBLIC "-//W3C//DTD SVG 1.1//EN"
 "http://www.w3.org/Graphics/SVG/1.1/DTD/svg11.dtd">
<!-- Generated by graphviz version 2.49.3 (20211023.0002)
 -->
<!-- Pages: 1 -->
<svg width="731pt" height="268pt"
 viewBox="0.00 0.00 731.13 268.00" xmlns="http://www.w3.org/2000/svg" xmlns:xlink="http://www.w3.org/1999/xlink">
<g id="graph0" class="graph" transform="scale(1 1) rotate(0) translate(4 264)">
<polygon fill="white" stroke="transparent" points="-4,4 -4,-264 727.13,-264 727.13,4 -4,4"/>
<!-- _0_ -->
<!-- 0 -->
<g id="node2" class="node">
<title>0</title>
<ellipse fill="none" stroke="black" cx="60.47" cy="-158" rx="18.44" ry="18"/>
<ellipse fill="none" stroke="black" cx="60.47" cy="-158" rx="22.44" ry="22"/>
<text text-anchor="middle" x="60.47" y="-154.9" font-family="Times,serif" font-size="12.00">&lt;&gt;</text>
</g>
<!-- _0_&#45;&gt;0 -->
<g id="edge1" class="edge">
<title>_0_&#45;&gt;0</title>
<path fill="none" stroke="black" d="M1.17,-158C2.92,-158 18.13,-158 32.57,-158"/>
<polygon fill="black" stroke="black" points="32.83,-159.75 37.83,-158 32.83,-156.25 32.83,-159.75"/>
</g>
<!-- 3 -->
<g id="node5" class="node">
<title>3</title>
<ellipse fill="none" stroke="black" cx="151.48" cy="-158" rx="21.58" ry="18"/>
<ellipse fill="none" stroke="black" cx="151.48" cy="-158" rx="25.59" ry="22"/>
<text text-anchor="middle" x="151.48" y="-154.9" font-family="Times,serif" font-size="12.00">&lt;a&gt;</text>
</g>
<!-- 0&#45;&gt;3 -->
<g id="edge2" class="edge">
<title>0&#45;&gt;3</title>
<path fill="none" stroke="black" d="M83.02,-158C94.27,-158 108.22,-158 120.51,-158"/>
<polygon fill="black" stroke="black" points="120.67,-159.75 125.67,-158 120.67,-156.25 120.67,-159.75"/>
<text text-anchor="middle" x="104.44" y="-161.4" font-family="Times,serif" font-size="12.00">a</text>
</g>
<!-- 5 -->
<g id="node7" class="node">
<title>5</title>
<ellipse fill="none" stroke="black" cx="221.19" cy="-238" rx="22.3" ry="18"/>
<ellipse fill="none" stroke="black" cx="221.19" cy="-238" rx="26.32" ry="22"/>
<text text-anchor="middle" x="221.19" y="-234.9" font-family="Times,serif" font-size="12.00">&lt;b&gt;</text>
</g>
<!-- 0&#45;&gt;5 -->
<g id="edge3" class="edge">
<title>0&#45;&gt;5</title>
<path fill="none" stroke="black" d="M80.93,-167.81C109.25,-182.09 161.92,-208.63 193.74,-224.67"/>
<polygon fill="black" stroke="black" points="193.02,-226.27 198.27,-226.96 194.6,-223.14 193.02,-226.27"/>
<text text-anchor="middle" x="104.44" y="-184.4" font-family="Times,serif" font-size="12.00">b</text>
</g>
<!-- 7 -->
<g id="node9" class="node">
<title>7</title>
<ellipse fill="none" stroke="black" cx="371.07" cy="-22" rx="21.58" ry="18"/>
<ellipse fill="none" stroke="black" cx="371.07" cy="-22" rx="25.59" ry="22"/>
<text text-anchor="middle" x="371.07" y="-18.9" font-family="Times,serif" font-size="12.00">&lt;c&gt;</text>
</g>
<!-- 0&#45;&gt;7 -->
<g id="edge4" class="edge">
<title>0&#45;&gt;7</title>
<path fill="none" stroke="black" d="M78.53,-144.58C112.1,-118.96 190.04,-63.4 265.35,-38 289.77,-29.76 318.83,-25.75 340.13,-23.8"/>
<polygon fill="black" stroke="black" points="340.54,-25.52 345.38,-23.35 340.24,-22.04 340.54,-25.52"/>
<text text-anchor="middle" x="151.48" y="-113.4" font-family="Times,serif" font-size="12.00">c</text>
</g>
<!-- 1 -->
<g id="node3" class="node">
<title>1</title>
<ellipse fill="none" stroke="black" cx="296.43" cy="-69" rx="27.16" ry="18"/>
<ellipse fill="none" stroke="black" cx="296.43" cy="-69" rx="31.17" ry="22"/>
<text text-anchor="middle" x="296.43" y="-65.9" font-family="Times,serif" font-size="12.00">&lt;a a&gt;</text>
</g>
<!-- 1&#45;&gt;1 -->
<g id="edge5" class="edge">
<title>1&#45;&gt;1</title>
<path fill="none" stroke="black" d="M283.05,-89.17C280.99,-99.6 285.45,-109 296.43,-109 305.53,-109 310.15,-102.55 310.31,-94.41"/>
<polygon fill="black" stroke="black" points="312.02,-93.99 309.82,-89.17 308.54,-94.31 312.02,-93.99"/>
<text text-anchor="middle" x="296.43" y="-112.4" font-family="Times,serif" font-size="12.00">a</text>
</g>
<!-- 2 -->
<g id="node4" class="node">
<title>2</title>
<ellipse fill="none" stroke="black" cx="445.7" cy="-139" rx="27.16" ry="18"/>
<ellipse fill="none" stroke="black" cx="445.7" cy="-139" rx="31.17" ry="22"/>
<text text-anchor="middle" x="445.7" y="-135.9" font-family="Times,serif" font-size="12.00">&lt;a b&gt;</text>
</g>
<!-- 1&#45;&gt;2 -->
<g id="edge6" class="edge">
<title>1&#45;&gt;2</title>
<path fill="none" stroke="black" d="M321.21,-82.33C328.9,-86.52 337.51,-91.07 345.52,-95 367.96,-106.03 393.8,-117.45 413.47,-125.89"/>
<polygon fill="black" stroke="black" points="413.05,-127.61 418.34,-127.97 414.43,-124.4 413.05,-127.61"/>
<text text-anchor="middle" x="371.07" y="-121.4" font-family="Times,serif" font-size="12.00">b</text>
</g>
<!-- 6 -->
<g id="node8" class="node">
<title>6</title>
<ellipse fill="none" stroke="black" cx="696.04" cy="-106" rx="27.17" ry="18"/>
<text text-anchor="middle" x="696.04" y="-102.9" font-family="Times,serif" font-size="12.00">&lt;c a&gt;</text>
</g>
<!-- 1&#45;&gt;6 -->
<g id="edge7" class="edge">
<title>1&#45;&gt;6</title>
<path fill="none" stroke="black" d="M327.32,-71.78C400.69,-78.61 589.13,-96.14 663.85,-103.1"/>
<polygon fill="black" stroke="black" points="663.89,-104.86 669.03,-103.58 664.21,-101.37 663.89,-104.86"/>
<text text-anchor="middle" x="509.28" y="-94.4" font-family="Times,serif" font-size="12.00">c</text>
</g>
<!-- 4 -->
<g id="node6" class="node">
<title>4</title>
<ellipse fill="none" stroke="black" cx="572.87" cy="-139" rx="27.16" ry="18"/>
<ellipse fill="none" stroke="black" cx="572.87" cy="-139" rx="31.17" ry="22"/>
<text text-anchor="middle" x="572.87" y="-135.9" font-family="Times,serif" font-size="12.00">&lt;b a&gt;</text>
</g>
<!-- 2&#45;&gt;4 -->
<g id="edge8" class="edge">
<title>2&#45;&gt;4</title>
<path fill="none" stroke="black" d="M477,-139C494.85,-139 517.54,-139 536.25,-139"/>
<polygon fill="black" stroke="black" points="536.41,-140.75 541.41,-139 536.41,-137.25 536.41,-140.75"/>
<text text-anchor="middle" x="509.28" y="-142.4" font-family="Times,serif" font-size="12.00">a, b, c</text>
</g>
<!-- 3&#45;&gt;1 -->
<g id="edge9" class="edge">
<title>3&#45;&gt;1</title>
<path fill="none" stroke="black" d="M172.36,-145.31C179.5,-140.78 187.61,-135.64 195.03,-131 219.57,-115.64 247.61,-98.34 267.81,-85.93"/>
<polygon fill="black" stroke="black" points="268.91,-87.31 272.25,-83.2 267.08,-84.33 268.91,-87.31"/>
<text text-anchor="middle" x="221.19" y="-134.4" font-family="Times,serif" font-size="12.00">a</text>
</g>
<!-- 3&#45;&gt;2 -->
<g id="edge10" class="edge">
<title>3&#45;&gt;2</title>
<path fill="none" stroke="black" d="M177.39,-156.38C229.38,-153 349.53,-145.19 409.42,-141.29"/>
<polygon fill="black" stroke="black" points="409.8,-143.02 414.68,-140.95 409.58,-139.53 409.8,-143.02"/>
<text text-anchor="middle" x="296.43" y="-153.4" font-family="Times,serif" font-size="12.00">b</text>
</g>
<!-- 3&#45;&gt;6 -->
<g id="edge11" class="edge">
<title>3&#45;&gt;6</title>
<path fill="none" stroke="black" d="M174.21,-168.35C201.76,-180.49 251.03,-199 295.43,-199 295.43,-199 295.43,-199 573.87,-199 620.94,-199 660.99,-154.29 681.13,-126.87"/>
<polygon fill="black" stroke="black" points="682.68,-127.71 684.19,-122.63 679.84,-125.66 682.68,-127.71"/>
<text text-anchor="middle" x="445.7" y="-202.4" font-family="Times,serif" font-size="12.00">c</text>
</g>
<!-- 4&#45;&gt;6 -->
<g id="edge12" class="edge">
<title>4&#45;&gt;6</title>
<path fill="none" stroke="black" d="M602.28,-131.26C621.2,-126.11 646.03,-119.35 665.24,-114.12"/>
<polygon fill="black" stroke="black" points="666.13,-115.69 670.5,-112.68 665.21,-112.31 666.13,-115.69"/>
<text text-anchor="middle" x="636.45" y="-128.4" font-family="Times,serif" font-size="12.00">a, b, c</text>
</g>
<!-- 5&#45;&gt;4 -->
<g id="edge13" class="edge">
<title>5&#45;&gt;4</title>
<path fill="none" stroke="black" d="M247.52,-240.57C294.62,-244.33 397.99,-247.78 476.78,-216 506.27,-204.11 533.78,-179.8 551.55,-161.66"/>
<polygon fill="black" stroke="black" points="553.2,-162.47 555.41,-157.66 550.68,-160.04 553.2,-162.47"/>
<text text-anchor="middle" x="371.07" y="-244.4" font-family="Times,serif" font-size="12.00">a, b, c</text>
</g>
<!-- 6&#45;&gt;6 -->
<g id="edge14" class="edge">
<title>6&#45;&gt;6</title>
<path fill="none" stroke="black" d="M685.76,-123.04C683.67,-132.86 687.09,-142 696.04,-142 703.31,-142 706.94,-135.96 706.92,-128.43"/>
<polygon fill="black" stroke="black" points="708.61,-127.81 706.32,-123.04 705.13,-128.2 708.61,-127.81"/>
<text text-anchor="middle" x="696.04" y="-145.4" font-family="Times,serif" font-size="12.00">a, b, c</text>
</g>
<!-- 7&#45;&gt;6 -->
<g id="edge15" class="edge">
<title>7&#45;&gt;6</title>
<path fill="none" stroke="black" d="M396.92,-21.45C447.38,-21.29 564.37,-25.82 650.95,-67 660.95,-71.75 670.37,-79.46 677.93,-86.78"/>
<polygon fill="black" stroke="black" points="676.7,-88.03 681.48,-90.32 679.17,-85.55 676.7,-88.03"/>
<text text-anchor="middle" x="509.28" y="-34.4" font-family="Times,serif" font-size="12.00">a, b, c</text>
</g>
</g>
</svg>
