<?xml version="1.0" encoding="UTF-8" standalone="no"?>
<!DOCTYPE svg PUBLIC "-//W3C//DTD SVG 1.1//EN"
 "http://www.w3.org/Graphics/SVG/1.1/DTD/svg11.dtd">
<!-- Generated by graphviz version 2.49.3 (20211023.0002)
 -->
<!-- Pages: 1 -->
<svg width="372pt" height="166pt"
 viewBox="0.00 0.00 372.00 166.00" xmlns="http://www.w3.org/2000/svg" xmlns:xlink="http://www.w3.org/1999/xlink">
<g id="graph0" class="graph" transform="scale(1 1) rotate(0) translate(4 162)">
<polygon fill="white" stroke="transparent" points="-4,4 -4,-162 368,-162 368,4 -4,4"/>
<!-- _0_ -->
<!-- 0 -->
<g id="node2" class="node">
<title>0</title>
<ellipse fill="none" stroke="black" cx="60" cy="-52" rx="18" ry="18"/>
<ellipse fill="none" stroke="black" cx="60" cy="-52" rx="22" ry="22"/>
<text text-anchor="middle" x="60" y="-48.9" font-family="Times,serif" font-size="12.00">1</text>
</g>
<!-- _0_&#45;&gt;0 -->
<g id="edge1" class="edge">
<title>_0_&#45;&gt;0</title>
<path fill="none" stroke="black" d="M1.17,-52C2.92,-52 18.2,-52 32.61,-52"/>
<polygon fill="black" stroke="black" points="32.86,-53.75 37.86,-52 32.86,-50.25 32.86,-53.75"/>
</g>
<!-- 1 -->
<g id="node3" class="node">
<title>1</title>
<ellipse fill="none" stroke="black" cx="233" cy="-56" rx="18" ry="18"/>
<ellipse fill="none" stroke="black" cx="233" cy="-56" rx="22" ry="22"/>
<text text-anchor="middle" x="233" y="-52.9" font-family="Times,serif" font-size="12.00">2</text>
</g>
<!-- 0&#45;&gt;1 -->
<g id="edge2" class="edge">
<title>0&#45;&gt;1</title>
<path fill="none" stroke="black" d="M82.31,-52.5C113.59,-53.23 171.86,-54.59 205.74,-55.39"/>
<polygon fill="black" stroke="black" points="205.92,-57.14 210.96,-55.51 206,-53.64 205.92,-57.14"/>
<text text-anchor="middle" x="146" y="-57.4" font-family="Times,serif" font-size="12.00">b</text>
</g>
<!-- 2 -->
<g id="node4" class="node">
<title>2</title>
<ellipse fill="none" stroke="black" cx="342" cy="-22" rx="18" ry="18"/>
<ellipse fill="none" stroke="black" cx="342" cy="-22" rx="22" ry="22"/>
<text text-anchor="middle" x="342" y="-18.9" font-family="Times,serif" font-size="12.00">3</text>
</g>
<!-- 0&#45;&gt;2 -->
<g id="edge3" class="edge">
<title>0&#45;&gt;2</title>
<path fill="none" stroke="black" d="M81.72,-47.22C110.53,-40.81 164.4,-29.7 211,-25 246.8,-21.39 288.41,-21.11 314.72,-21.42"/>
<polygon fill="black" stroke="black" points="314.75,-23.17 319.77,-21.48 314.8,-19.67 314.75,-23.17"/>
<text text-anchor="middle" x="189.5" y="-31.4" font-family="Times,serif" font-size="12.00">c</text>
</g>
<!-- 3 -->
<g id="node5" class="node">
<title>3</title>
<ellipse fill="none" stroke="black" cx="146" cy="-105" rx="18" ry="18"/>
<ellipse fill="none" stroke="black" cx="146" cy="-105" rx="22" ry="22"/>
<text text-anchor="middle" x="146" y="-101.9" font-family="Times,serif" font-size="12.00">4</text>
</g>
<!-- 0&#45;&gt;3 -->
<g id="edge4" class="edge">
<title>0&#45;&gt;3</title>
<path fill="none" stroke="black" d="M79.23,-63.5C91.97,-71.54 109.07,-82.33 122.64,-90.89"/>
<polygon fill="black" stroke="black" points="121.93,-92.52 127.1,-93.7 123.8,-89.56 121.93,-92.52"/>
<text text-anchor="middle" x="103" y="-83.4" font-family="Times,serif" font-size="12.00">a</text>
</g>
<!-- 1&#45;&gt;2 -->
<g id="edge5" class="edge">
<title>1&#45;&gt;2</title>
<path fill="none" stroke="black" d="M254.13,-49.6C271.5,-44.08 296.7,-36.08 315.48,-30.11"/>
<polygon fill="black" stroke="black" points="316.37,-31.66 320.6,-28.48 315.31,-28.33 316.37,-31.66"/>
<text text-anchor="middle" x="287.5" y="-46.4" font-family="Times,serif" font-size="12.00">a, b, c</text>
</g>
<!-- 3&#45;&gt;1 -->
<g id="edge6" class="edge">
<title>3&#45;&gt;1</title>
<path fill="none" stroke="black" d="M165.44,-94.37C178.25,-86.98 195.41,-77.09 209.1,-69.2"/>
<polygon fill="black" stroke="black" points="210.13,-70.62 213.59,-66.61 208.39,-67.59 210.13,-70.62"/>
<text text-anchor="middle" x="189.5" y="-84.4" font-family="Times,serif" font-size="12.00">b</text>
</g>
<!-- 3&#45;&gt;3 -->
<g id="edge7" class="edge">
<title>3&#45;&gt;3</title>
<path fill="none" stroke="black" d="M138.32,-125.99C137.37,-136.09 139.93,-145 146,-145 151.03,-145 153.65,-138.89 153.86,-131.05"/>
<polygon fill="black" stroke="black" points="155.61,-130.93 153.68,-125.99 152.11,-131.05 155.61,-130.93"/>
<text text-anchor="middle" x="146" y="-148.4" font-family="Times,serif" font-size="12.00">a</text>
</g>
</g>
</svg>
