<?xml version="1.0" encoding="UTF-8" standalone="no"?>
<!DOCTYPE svg PUBLIC "-//W3C//DTD SVG 1.1//EN"
 "http://www.w3.org/Graphics/SVG/1.1/DTD/svg11.dtd">
<!-- Generated by graphviz version 2.49.1 (20210923.0004)
 -->
<!-- Pages: 1 -->
<svg width="250pt" height="185pt"
 viewBox="0.00 0.00 250.00 185.15" xmlns="http://www.w3.org/2000/svg" xmlns:xlink="http://www.w3.org/1999/xlink">
<g id="graph0" class="graph" transform="scale(1 1) rotate(0) translate(4 181.15)">
<polygon fill="white" stroke="transparent" points="-4,4 -4,-181.15 246,-181.15 246,4 -4,4"/>
<!-- _0_ -->
<!-- 0 -->
<g id="node2" class="node">
<title>0</title>
<ellipse fill="none" stroke="black" cx="56" cy="-43.15" rx="18" ry="18"/>
<text text-anchor="middle" x="56" y="-40.05" font-family="Times,serif" font-size="12.00">λ</text>
</g>
<!-- _0_&#45;&gt;0 -->
<g id="edge1" class="edge">
<title>_0_&#45;&gt;0</title>
<path fill="none" stroke="black" d="M1.15,-43.15C2.88,-43.15 18.79,-43.15 32.87,-43.15"/>
<polygon fill="black" stroke="black" points="32.94,-44.9 37.94,-43.15 32.94,-41.4 32.94,-44.9"/>
</g>
<!-- 2 -->
<g id="node4" class="node">
<title>2</title>
<ellipse fill="none" stroke="black" cx="135" cy="-128.15" rx="18" ry="18"/>
<text text-anchor="middle" x="135" y="-125.05" font-family="Times,serif" font-size="12.00">a</text>
</g>
<!-- 0&#45;&gt;2 -->
<g id="edge2" class="edge">
<title>0&#45;&gt;2</title>
<path fill="none" stroke="black" d="M68.69,-56.06C82.04,-70.78 103.9,-94.92 118.62,-111.17"/>
<polygon fill="black" stroke="black" points="117.54,-112.58 122.2,-115.11 120.14,-110.23 117.54,-112.58"/>
<text text-anchor="middle" x="95.5" y="-91.55" font-family="Times,serif" font-size="12.00">a</text>
</g>
<!-- 3 -->
<g id="node5" class="node">
<title>3</title>
<ellipse fill="none" stroke="black" cx="135" cy="-43.15" rx="18" ry="18"/>
<text text-anchor="middle" x="135" y="-40.05" font-family="Times,serif" font-size="12.00">b</text>
</g>
<!-- 0&#45;&gt;3 -->
<g id="edge3" class="edge">
<title>0&#45;&gt;3</title>
<path fill="none" stroke="black" d="M74.09,-43.15C85.15,-43.15 99.68,-43.15 111.66,-43.15"/>
<polygon fill="black" stroke="black" points="111.96,-44.9 116.96,-43.15 111.96,-41.4 111.96,-44.9"/>
<text text-anchor="middle" x="95.5" y="-46.55" font-family="Times,serif" font-size="12.00">b</text>
</g>
<!-- 4 -->
<g id="node6" class="node">
<title>4</title>
<ellipse fill="none" stroke="black" cx="224" cy="-27.15" rx="18" ry="18"/>
<text text-anchor="middle" x="224" y="-24.05" font-family="Times,serif" font-size="12.00">c</text>
</g>
<!-- 0&#45;&gt;4 -->
<g id="edge4" class="edge">
<title>0&#45;&gt;4</title>
<path fill="none" stroke="black" d="M70.1,-31.05C81.52,-21.39 99.03,-8.59 117,-3.15 146.55,5.8 181.63,-6.49 203.1,-16.53"/>
<polygon fill="black" stroke="black" points="202.46,-18.17 207.73,-18.76 203.98,-15.01 202.46,-18.17"/>
<text text-anchor="middle" x="135" y="-6.55" font-family="Times,serif" font-size="12.00">c</text>
</g>
<!-- 1 -->
<g id="node3" class="node">
<title>1</title>
<ellipse fill="none" stroke="black" cx="224" cy="-120.15" rx="18" ry="18"/>
<text text-anchor="middle" x="224" y="-117.05" font-family="Times,serif" font-size="12.00">ab</text>
</g>
<!-- 1&#45;&gt;1 -->
<g id="edge5" class="edge">
<title>1&#45;&gt;1</title>
<path fill="none" stroke="black" d="M216.33,-136.44C214.48,-146.53 217.04,-156.15 224,-156.15 229.76,-156.15 232.51,-149.55 232.23,-141.55"/>
<polygon fill="black" stroke="black" points="233.95,-141.21 231.67,-136.44 230.48,-141.6 233.95,-141.21"/>
<text text-anchor="middle" x="224" y="-159.55" font-family="Times,serif" font-size="12.00">b</text>
</g>
<!-- 1&#45;&gt;2 -->
<g id="edge6" class="edge">
<title>1&#45;&gt;2</title>
<path fill="none" stroke="black" d="M206.98,-114.09C196.65,-110.99 182.96,-108.39 171,-111.15 165.77,-112.35 160.41,-114.45 155.51,-116.76"/>
<polygon fill="black" stroke="black" points="154.47,-115.33 150.78,-119.13 156.03,-118.46 154.47,-115.33"/>
<text text-anchor="middle" x="179.5" y="-114.55" font-family="Times,serif" font-size="12.00">a, c</text>
</g>
<!-- 2&#45;&gt;1 -->
<g id="edge7" class="edge">
<title>2&#45;&gt;1</title>
<path fill="none" stroke="black" d="M153.35,-126.97C163.46,-126.25 176.46,-125.25 188,-124.15 192.11,-123.75 196.49,-123.29 200.7,-122.82"/>
<polygon fill="black" stroke="black" points="201.15,-124.53 205.92,-122.23 200.76,-121.05 201.15,-124.53"/>
<text text-anchor="middle" x="179.5" y="-128.55" font-family="Times,serif" font-size="12.00">b</text>
</g>
<!-- 2&#45;&gt;2 -->
<g id="edge8" class="edge">
<title>2&#45;&gt;2</title>
<path fill="none" stroke="black" d="M128.27,-145.18C126.89,-155 129.14,-164.15 135,-164.15 139.76,-164.15 142.14,-158.11 142.12,-150.58"/>
<polygon fill="black" stroke="black" points="143.84,-150.04 141.73,-145.18 140.35,-150.3 143.84,-150.04"/>
<text text-anchor="middle" x="135" y="-167.55" font-family="Times,serif" font-size="12.00">a, c</text>
</g>
<!-- 3&#45;&gt;3 -->
<g id="edge9" class="edge">
<title>3&#45;&gt;3</title>
<path fill="none" stroke="black" d="M128.27,-60.18C126.89,-70 129.14,-79.15 135,-79.15 139.76,-79.15 142.14,-73.11 142.12,-65.58"/>
<polygon fill="black" stroke="black" points="143.84,-65.04 141.73,-60.18 140.35,-65.3 143.84,-65.04"/>
<text text-anchor="middle" x="135" y="-82.55" font-family="Times,serif" font-size="12.00">b</text>
</g>
<!-- 3&#45;&gt;4 -->
<g id="edge10" class="edge">
<title>3&#45;&gt;4</title>
<path fill="none" stroke="black" d="M153.04,-43.94C163.28,-44.07 176.51,-43.59 188,-41.15 192.8,-40.13 197.78,-38.5 202.43,-36.72"/>
<polygon fill="black" stroke="black" points="203.35,-38.24 207.33,-34.74 202.04,-34.99 203.35,-38.24"/>
<text text-anchor="middle" x="179.5" y="-46.55" font-family="Times,serif" font-size="12.00">a, c</text>
</g>
<!-- 4&#45;&gt;3 -->
<g id="edge11" class="edge">
<title>4&#45;&gt;3</title>
<path fill="none" stroke="black" d="M205.89,-23.58C195.63,-22.07 182.39,-21.25 171,-24.15 165.46,-25.55 159.85,-28.03 154.79,-30.75"/>
<polygon fill="black" stroke="black" points="153.8,-29.29 150.31,-33.28 155.52,-32.34 153.8,-29.29"/>
<text text-anchor="middle" x="179.5" y="-27.55" font-family="Times,serif" font-size="12.00">b</text>
</g>
<!-- 4&#45;&gt;4 -->
<g id="edge12" class="edge">
<title>4&#45;&gt;4</title>
<path fill="none" stroke="black" d="M216.33,-43.44C214.48,-53.53 217.04,-63.15 224,-63.15 229.76,-63.15 232.51,-56.55 232.23,-48.55"/>
<polygon fill="black" stroke="black" points="233.95,-48.21 231.67,-43.44 230.48,-48.6 233.95,-48.21"/>
<text text-anchor="middle" x="224" y="-66.55" font-family="Times,serif" font-size="12.00">a, c</text>
</g>
</g>
</svg>
