<?xml version="1.0" encoding="UTF-8" standalone="no"?>
<!DOCTYPE svg PUBLIC "-//W3C//DTD SVG 1.1//EN"
 "http://www.w3.org/Graphics/SVG/1.1/DTD/svg11.dtd">
<!-- Generated by graphviz version 2.49.1 (20210923.0004)
 -->
<!-- Pages: 1 -->
<svg width="285pt" height="172pt"
 viewBox="0.00 0.00 285.00 172.00" xmlns="http://www.w3.org/2000/svg" xmlns:xlink="http://www.w3.org/1999/xlink">
<g id="graph0" class="graph" transform="scale(1 1) rotate(0) translate(4 168)">
<polygon fill="white" stroke="transparent" points="-4,4 -4,-168 281,-168 281,4 -4,4"/>
<!-- _0_ -->
<!-- 0 -->
<g id="node2" class="node">
<title>0</title>
<ellipse fill="none" stroke="black" cx="60" cy="-66" rx="18" ry="18"/>
<ellipse fill="none" stroke="black" cx="60" cy="-66" rx="22" ry="22"/>
<text text-anchor="middle" x="60" y="-62.9" font-family="Times,serif" font-size="12.00">1</text>
</g>
<!-- _0_&#45;&gt;0 -->
<g id="edge1" class="edge">
<title>_0_&#45;&gt;0</title>
<path fill="none" stroke="black" d="M1.17,-66C2.92,-66 18.2,-66 32.61,-66"/>
<polygon fill="black" stroke="black" points="32.86,-67.75 37.86,-66 32.86,-64.25 32.86,-67.75"/>
</g>
<!-- 1 -->
<g id="node3" class="node">
<title>1</title>
<ellipse fill="none" stroke="black" cx="158" cy="-111" rx="18" ry="18"/>
<text text-anchor="middle" x="158" y="-107.9" font-family="Times,serif" font-size="12.00">2</text>
</g>
<!-- 0&#45;&gt;1 -->
<g id="edge2" class="edge">
<title>0&#45;&gt;1</title>
<path fill="none" stroke="black" d="M80.43,-75.11C96.71,-82.74 119.9,-93.61 136.48,-101.38"/>
<polygon fill="black" stroke="black" points="136.13,-103.15 141.4,-103.69 137.62,-99.98 136.13,-103.15"/>
<text text-anchor="middle" x="109" y="-95.4" font-family="Times,serif" font-size="12.00">a</text>
</g>
<!-- 3 -->
<g id="node5" class="node">
<title>3</title>
<ellipse fill="none" stroke="black" cx="158" cy="-22" rx="18" ry="18"/>
<ellipse fill="none" stroke="black" cx="158" cy="-22" rx="22" ry="22"/>
<text text-anchor="middle" x="158" y="-18.9" font-family="Times,serif" font-size="12.00">4</text>
</g>
<!-- 0&#45;&gt;3 -->
<g id="edge3" class="edge">
<title>0&#45;&gt;3</title>
<path fill="none" stroke="black" d="M80.43,-57.1C95.52,-50.18 116.54,-40.54 132.74,-33.12"/>
<polygon fill="black" stroke="black" points="133.79,-34.57 137.6,-30.89 132.33,-31.38 133.79,-34.57"/>
<text text-anchor="middle" x="109" y="-51.4" font-family="Times,serif" font-size="12.00">b, c</text>
</g>
<!-- 1&#45;&gt;1 -->
<g id="edge4" class="edge">
<title>1&#45;&gt;1</title>
<path fill="none" stroke="black" d="M149.64,-127.29C147.62,-137.39 150.41,-147 158,-147 164.29,-147 167.28,-140.41 166.98,-132.41"/>
<polygon fill="black" stroke="black" points="168.7,-132.05 166.36,-127.29 165.22,-132.46 168.7,-132.05"/>
<text text-anchor="middle" x="158" y="-150.4" font-family="Times,serif" font-size="12.00">a, c</text>
</g>
<!-- 2 -->
<g id="node4" class="node">
<title>2</title>
<ellipse fill="none" stroke="black" cx="255" cy="-111" rx="18" ry="18"/>
<ellipse fill="none" stroke="black" cx="255" cy="-111" rx="22" ry="22"/>
<text text-anchor="middle" x="255" y="-107.9" font-family="Times,serif" font-size="12.00">3</text>
</g>
<!-- 1&#45;&gt;2 -->
<g id="edge5" class="edge">
<title>1&#45;&gt;2</title>
<path fill="none" stroke="black" d="M176.42,-111C190.67,-111 211.05,-111 227.34,-111"/>
<polygon fill="black" stroke="black" points="227.69,-112.75 232.69,-111 227.69,-109.25 227.69,-112.75"/>
<text text-anchor="middle" x="206.5" y="-114.4" font-family="Times,serif" font-size="12.00">b</text>
</g>
<!-- 2&#45;&gt;1 -->
<g id="edge6" class="edge">
<title>2&#45;&gt;1</title>
<path fill="none" stroke="black" d="M235.08,-100.9C228.86,-98.09 221.8,-95.42 215,-94 202.75,-91.45 189.33,-95.28 178.7,-99.95"/>
<polygon fill="black" stroke="black" points="177.81,-98.44 174.02,-102.14 179.29,-101.61 177.81,-98.44"/>
<text text-anchor="middle" x="206.5" y="-97.4" font-family="Times,serif" font-size="12.00">a, c</text>
</g>
<!-- 2&#45;&gt;2 -->
<g id="edge7" class="edge">
<title>2&#45;&gt;2</title>
<path fill="none" stroke="black" d="M246.27,-131.58C245.06,-141.84 247.97,-151 255,-151 260.82,-151 263.82,-144.72 263.99,-136.73"/>
<polygon fill="black" stroke="black" points="265.73,-136.49 263.73,-131.58 262.24,-136.66 265.73,-136.49"/>
<text text-anchor="middle" x="255" y="-154.4" font-family="Times,serif" font-size="12.00">b</text>
</g>
<!-- 3&#45;&gt;3 -->
<g id="edge8" class="edge">
<title>3&#45;&gt;3</title>
<path fill="none" stroke="black" d="M149.27,-42.58C148.06,-52.84 150.97,-62 158,-62 163.82,-62 166.82,-55.72 166.99,-47.73"/>
<polygon fill="black" stroke="black" points="168.73,-47.49 166.73,-42.58 165.24,-47.66 168.73,-47.49"/>
<text text-anchor="middle" x="158" y="-65.4" font-family="Times,serif" font-size="12.00">a, b, c</text>
</g>
</g>
</svg>
