<?xml version="1.0" encoding="UTF-8" standalone="no"?>
<!DOCTYPE svg PUBLIC "-//W3C//DTD SVG 1.1//EN"
 "http://www.w3.org/Graphics/SVG/1.1/DTD/svg11.dtd">
<!-- Generated by graphviz version 2.49.3 (20211023.0002)
 -->
<!-- Pages: 1 -->
<svg width="175pt" height="76pt"
 viewBox="0.00 0.00 175.00 75.89" xmlns="http://www.w3.org/2000/svg" xmlns:xlink="http://www.w3.org/1999/xlink">
<g id="graph0" class="graph" transform="scale(1 1) rotate(0) translate(4 71.89)">
<polygon fill="white" stroke="transparent" points="-4,4 -4,-71.89 171,-71.89 171,4 -4,4"/>
<!-- _0_ -->
<!-- 0 -->
<g id="node2" class="node">
<title>0</title>
<ellipse fill="none" stroke="black" cx="56" cy="-18.89" rx="18" ry="18"/>
<text text-anchor="middle" x="56" y="-15.79" font-family="Times,serif" font-size="12.00">1</text>
</g>
<!-- _0_&#45;&gt;0 -->
<g id="edge1" class="edge">
<title>_0_&#45;&gt;0</title>
<path fill="none" stroke="black" d="M1.15,-18.89C2.88,-18.89 18.79,-18.89 32.87,-18.89"/>
<polygon fill="black" stroke="black" points="32.94,-20.64 37.94,-18.89 32.94,-17.14 32.94,-20.64"/>
</g>
<!-- 0&#45;&gt;0 -->
<g id="edge2" class="edge">
<title>0&#45;&gt;0</title>
<path fill="none" stroke="black" d="M49.62,-35.93C48.32,-45.75 50.45,-54.89 56,-54.89 60.51,-54.89 62.76,-48.86 62.75,-41.33"/>
<polygon fill="black" stroke="black" points="64.47,-40.8 62.38,-35.93 60.98,-41.04 64.47,-40.8"/>
<text text-anchor="middle" x="56" y="-58.29" font-family="Times,serif" font-size="12.00">t, v</text>
</g>
<!-- 1 -->
<g id="node3" class="node">
<title>1</title>
<ellipse fill="none" stroke="black" cx="147" cy="-18.89" rx="18" ry="18"/>
<text text-anchor="middle" x="147" y="-15.79" font-family="Times,serif" font-size="12.00">2</text>
</g>
<!-- 0&#45;&gt;1 -->
<g id="edge3" class="edge">
<title>0&#45;&gt;1</title>
<path fill="none" stroke="black" d="M74.16,-18.89C88.32,-18.89 108.51,-18.89 123.88,-18.89"/>
<polygon fill="black" stroke="black" points="123.89,-20.64 128.89,-18.89 123.89,-17.14 123.89,-20.64"/>
<text text-anchor="middle" x="101.5" y="-22.29" font-family="Times,serif" font-size="12.00">n, ṽ</text>
</g>
<!-- 1&#45;&gt;0 -->
<g id="edge4" class="edge">
<title>1&#45;&gt;0</title>
<path fill="none" stroke="black" d="M131.22,-9.88C125.18,-6.69 117.98,-3.5 111,-1.89 102.77,0 100.23,0 92,-1.89 86.77,-3.1 81.41,-5.19 76.51,-7.51"/>
<polygon fill="black" stroke="black" points="75.47,-6.07 71.78,-9.88 77.03,-9.2 75.47,-6.07"/>
<text text-anchor="middle" x="101.5" y="-5.29" font-family="Times,serif" font-size="12.00">t</text>
</g>
<!-- 1&#45;&gt;1 -->
<g id="edge5" class="edge">
<title>1&#45;&gt;1</title>
<path fill="none" stroke="black" d="M139.33,-35.18C137.48,-45.28 140.04,-54.89 147,-54.89 152.76,-54.89 155.51,-48.3 155.23,-40.3"/>
<polygon fill="black" stroke="black" points="156.95,-39.96 154.67,-35.18 153.48,-40.34 156.95,-39.96"/>
<text text-anchor="middle" x="147" y="-58.29" font-family="Times,serif" font-size="12.00">n, v:ṽ, ṽ</text>
</g>
</g>
</svg>
