<?xml version="1.0" encoding="UTF-8" standalone="no"?>
<!DOCTYPE svg PUBLIC "-//W3C//DTD SVG 1.1//EN"
 "http://www.w3.org/Graphics/SVG/1.1/DTD/svg11.dtd">
<!-- Generated by graphviz version 2.49.3 (20211023.0002)
 -->
<!-- Pages: 1 -->
<svg width="264pt" height="108pt"
 viewBox="0.00 0.00 264.00 108.00" xmlns="http://www.w3.org/2000/svg" xmlns:xlink="http://www.w3.org/1999/xlink">
<g id="graph0" class="graph" transform="scale(1 1) rotate(0) translate(4 104)">
<polygon fill="white" stroke="transparent" points="-4,4 -4,-104 260,-104 260,4 -4,4"/>
<!-- _0_ -->
<!-- 0 -->
<g id="node2" class="node">
<title>0</title>
<ellipse fill="none" stroke="black" cx="56" cy="-18" rx="18" ry="18"/>
</g>
<!-- _0_&#45;&gt;0 -->
<g id="edge1" class="edge">
<title>_0_&#45;&gt;0</title>
<path fill="none" stroke="black" d="M1.15,-18C2.88,-18 18.79,-18 32.87,-18"/>
<polygon fill="black" stroke="black" points="32.94,-19.75 37.94,-18 32.94,-16.25 32.94,-19.75"/>
</g>
<!-- 0&#45;&gt;0 -->
<g id="edge2" class="edge">
<title>0&#45;&gt;0</title>
<path fill="none" stroke="black" d="M49.62,-35.04C48.32,-44.86 50.45,-54 56,-54 60.51,-54 62.76,-47.96 62.75,-40.43"/>
<polygon fill="black" stroke="black" points="64.47,-39.91 62.38,-35.04 60.98,-40.15 64.47,-39.91"/>
<text text-anchor="middle" x="56" y="-57.4" font-family="Times,serif" font-size="12.00">v</text>
</g>
<!-- 1 -->
<g id="node3" class="node">
<title>1</title>
<ellipse fill="none" stroke="black" cx="147" cy="-51" rx="18" ry="18"/>
<text text-anchor="middle" x="147" y="-47.9" font-family="Times,serif" font-size="12.00">n</text>
</g>
<!-- 0&#45;&gt;1 -->
<g id="edge3" class="edge">
<title>0&#45;&gt;1</title>
<path fill="none" stroke="black" d="M73.32,-24.05C87.88,-29.45 109.26,-37.38 125.07,-43.24"/>
<polygon fill="black" stroke="black" points="124.48,-44.89 129.78,-44.99 125.7,-41.61 124.48,-44.89"/>
<text text-anchor="middle" x="101.5" y="-40.4" font-family="Times,serif" font-size="12.00">n, ṽ</text>
</g>
<!-- 2 -->
<g id="node4" class="node">
<title>2</title>
<ellipse fill="none" stroke="black" cx="238" cy="-35" rx="18" ry="18"/>
<text text-anchor="middle" x="238" y="-31.9" font-family="Times,serif" font-size="12.00">t</text>
</g>
<!-- 0&#45;&gt;2 -->
<g id="edge4" class="edge">
<title>0&#45;&gt;2</title>
<path fill="none" stroke="black" d="M73.95,-14.56C95.31,-10.76 133.1,-5.82 165,-11 182.72,-13.88 201.98,-20.49 216.11,-26.05"/>
<polygon fill="black" stroke="black" points="215.78,-27.8 221.08,-28.04 217.09,-24.55 215.78,-27.8"/>
<text text-anchor="middle" x="147" y="-14.4" font-family="Times,serif" font-size="12.00">t</text>
</g>
<!-- 1&#45;&gt;1 -->
<g id="edge5" class="edge">
<title>1&#45;&gt;1</title>
<path fill="none" stroke="black" d="M139.33,-67.29C137.48,-77.39 140.04,-87 147,-87 152.76,-87 155.51,-80.41 155.23,-72.41"/>
<polygon fill="black" stroke="black" points="156.95,-72.07 154.67,-67.29 153.48,-72.45 156.95,-72.07"/>
<text text-anchor="middle" x="147" y="-90.4" font-family="Times,serif" font-size="12.00">n, v, ṽ</text>
</g>
<!-- 1&#45;&gt;2 -->
<g id="edge6" class="edge">
<title>1&#45;&gt;2</title>
<path fill="none" stroke="black" d="M165.21,-51.85C175.91,-52.02 189.89,-51.57 202,-49 206.8,-47.98 211.78,-46.36 216.44,-44.58"/>
<polygon fill="black" stroke="black" points="217.35,-46.1 221.33,-42.6 216.04,-42.85 217.35,-46.1"/>
<text text-anchor="middle" x="192.5" y="-54.4" font-family="Times,serif" font-size="12.00">t</text>
</g>
<!-- 2&#45;&gt;1 -->
<g id="edge7" class="edge">
<title>2&#45;&gt;1</title>
<path fill="none" stroke="black" d="M220.21,-31.5C209.42,-29.87 195.19,-28.9 183,-32 177.46,-33.41 171.85,-35.89 166.79,-38.6"/>
<polygon fill="black" stroke="black" points="165.8,-37.15 162.31,-41.13 167.52,-40.19 165.8,-37.15"/>
<text text-anchor="middle" x="192.5" y="-35.4" font-family="Times,serif" font-size="12.00">n, ṽ</text>
</g>
<!-- 2&#45;&gt;2 -->
<g id="edge8" class="edge">
<title>2&#45;&gt;2</title>
<path fill="none" stroke="black" d="M230.33,-51.29C228.48,-61.39 231.04,-71 238,-71 243.76,-71 246.51,-64.41 246.23,-56.41"/>
<polygon fill="black" stroke="black" points="247.95,-56.07 245.67,-51.29 244.48,-56.45 247.95,-56.07"/>
<text text-anchor="middle" x="238" y="-74.4" font-family="Times,serif" font-size="12.00">t, v</text>
</g>
</g>
</svg>
